<svg width="77" height="24" viewBox="0 0 77 24" fill="none" xmlns="http://www.w3.org/2000/svg">
<path d="M19.4974 12.2107C19.4974 11.5878 19.4464 10.9623 19.3391 10.3499H10.6503V13.8765H15.6254C15.5228 14.4408 15.3067 14.9785 14.9902 15.4569C14.6738 15.9353 14.2635 16.3445 13.7843 16.6598V18.9497H16.7534C18.4964 17.3533 19.4974 14.9979 19.4974 12.2107Z" fill="#4285F4"/>
<path d="M10.6516 21.1599C13.1353 21.1599 15.2302 20.3486 16.756 18.9484L13.7882 16.6598C12.9625 17.2185 11.8961 17.5352 10.6542 17.5352C8.25174 17.5352 6.21432 15.9231 5.48284 13.7561H2.42083V16.1154C3.19235 17.635 4.37003 18.9108 5.82302 19.8014C7.27602 20.6919 8.94745 21.1621 10.6516 21.1599Z" fill="#34A853"/>
<path d="M5.47891 13.7561C5.09303 12.6189 5.09303 11.3863 5.47891 10.2492V7.88983H2.41951C1.77524 9.16508 1.43958 10.5739 1.43958 12.0026C1.43958 13.4314 1.77524 14.8401 2.41951 16.1154L5.47891 13.7561Z" fill="#FBBC04"/>
<path d="M10.6516 6.46483C11.9636 6.44356 13.2318 6.93675 14.1847 7.83881L16.8149 5.22302C15.1433 3.66592 12.9359 2.81295 10.6516 2.84145C8.94698 2.83929 7.27514 3.31002 5.82205 4.20128C4.36896 5.09254 3.19157 6.3694 2.42083 7.88985L5.4776 10.2465C6.20516 8.07697 8.2465 6.46483 10.649 6.46483H10.6516Z" fill="#EA4335"/>
<mask id="path-5-outside-1_1_17" maskUnits="userSpaceOnUse" x="20.9368" y="5" width="56" height="17" fill="black">
<rect fill="white" x="20.9368" y="5" width="56" height="17"/>
<path d="M26.1048 17.256C25.1715 17.256 24.3688 17.0267 23.6968 16.568C23.0302 16.104 22.5182 15.44 22.1608 14.576C21.8035 13.712 21.6248 12.6747 21.6248 11.464V11.192C21.6248 9.95467 21.8035 8.896 22.1608 8.016C22.5182 7.136 23.0302 6.46133 23.6968 5.992C24.3688 5.52267 25.1742 5.288 26.1128 5.288C26.9982 5.288 27.7502 5.50133 28.3688 5.928C28.9875 6.34933 29.4515 6.96533 29.7608 7.776L28.4168 8.376C28.2088 7.81067 27.9155 7.38933 27.5368 7.112C27.1635 6.83467 26.6995 6.696 26.1448 6.696C25.1795 6.696 24.4355 7.08267 23.9128 7.856C23.3902 8.62933 23.1288 9.728 23.1288 11.152V11.504C23.1288 12.9013 23.3848 13.976 23.8968 14.728C24.4142 15.4747 25.1528 15.848 26.1128 15.848C26.9235 15.848 27.5395 15.5707 27.9608 15.016C28.3875 14.456 28.6008 13.6427 28.6008 12.576V12.152H25.9528V10.768H30.0408V12.44C30.0408 13.96 29.6942 15.144 29.0008 15.992C28.3128 16.8347 27.3475 17.256 26.1048 17.256ZM35.0106 17.256C34.2373 17.256 33.5573 17.0747 32.9706 16.712C32.3893 16.3493 31.9359 15.8427 31.6106 15.192C31.2853 14.536 31.1226 13.7787 31.1226 12.92V12.704C31.1226 11.84 31.2853 11.0827 31.6106 10.432C31.9359 9.78133 32.3893 9.27467 32.9706 8.912C33.5573 8.54933 34.2373 8.368 35.0106 8.368C35.7839 8.368 36.4613 8.54933 37.0426 8.912C37.6293 9.27467 38.0853 9.78133 38.4106 10.432C38.7359 11.0827 38.8986 11.84 38.8986 12.704V12.92C38.8986 13.7787 38.7359 14.536 38.4106 15.192C38.0853 15.8427 37.6293 16.3493 37.0426 16.712C36.4613 17.0747 35.7839 17.256 35.0106 17.256ZM35.0106 15.912C35.7573 15.912 36.3439 15.6427 36.7706 15.104C37.1973 14.5653 37.4106 13.8293 37.4106 12.896V12.728C37.4106 11.7893 37.1973 11.0533 36.7706 10.52C36.3439 9.98133 35.7573 9.712 35.0106 9.712C34.2693 9.712 33.6826 9.98133 33.2506 10.52C32.8239 11.0533 32.6106 11.7893 32.6106 12.728V12.896C32.6106 13.8293 32.8239 14.5653 33.2506 15.104C33.6826 15.6427 34.2693 15.912 35.0106 15.912ZM44.2843 17.256C43.511 17.256 42.831 17.0747 42.2443 16.712C41.663 16.3493 41.2097 15.8427 40.8843 15.192C40.559 14.536 40.3963 13.7787 40.3963 12.92V12.704C40.3963 11.84 40.559 11.0827 40.8843 10.432C41.2097 9.78133 41.663 9.27467 42.2443 8.912C42.831 8.54933 43.511 8.368 44.2843 8.368C45.0577 8.368 45.735 8.54933 46.3163 8.912C46.903 9.27467 47.359 9.78133 47.6843 10.432C48.0097 11.0827 48.1723 11.84 48.1723 12.704V12.92C48.1723 13.7787 48.0097 14.536 47.6843 15.192C47.359 15.8427 46.903 16.3493 46.3163 16.712C45.735 17.0747 45.0577 17.256 44.2843 17.256ZM44.2843 15.912C45.031 15.912 45.6177 15.6427 46.0443 15.104C46.471 14.5653 46.6843 13.8293 46.6843 12.896V12.728C46.6843 11.7893 46.471 11.0533 46.0443 10.52C45.6177 9.98133 45.031 9.712 44.2843 9.712C43.543 9.712 42.9563 9.98133 42.5243 10.52C42.0977 11.0533 41.8843 11.7893 41.8843 12.728V12.896C41.8843 13.8293 42.0977 14.5653 42.5243 15.104C42.9563 15.6427 43.543 15.912 44.2843 15.912ZM53.5021 21.576C52.6701 21.576 51.9501 21.4613 51.3421 21.232C50.7394 21.0027 50.2728 20.6773 49.9421 20.256C49.6114 19.84 49.4461 19.344 49.4461 18.768C49.4461 18.1813 49.6141 17.6693 49.9501 17.232C50.2914 16.8 50.7688 16.48 51.3821 16.272L51.7341 16.968C51.4194 17.1333 51.1768 17.3547 51.0061 17.632C50.8354 17.9147 50.7501 18.232 50.7501 18.584C50.7501 19.1493 50.9794 19.576 51.4381 19.864C51.9021 20.152 52.5901 20.296 53.5021 20.296C54.3821 20.296 55.0808 20.1307 55.5981 19.8C56.1154 19.4693 56.3741 19.0213 56.3741 18.456C56.3741 17.6347 55.8594 17.224 54.8301 17.224H50.9101V16.76L52.5181 14.184L53.4061 14.36L52.7741 16.008H54.9421C55.8274 16.008 56.5154 16.224 57.0061 16.656C57.5021 17.0827 57.7501 17.6773 57.7501 18.44C57.7501 19.08 57.5768 19.6347 57.2301 20.104C56.8834 20.5733 56.3928 20.936 55.7581 21.192C55.1234 21.448 54.3714 21.576 53.5021 21.576ZM53.5661 14.704C52.9368 14.704 52.3661 14.568 51.8541 14.296C51.3474 14.0187 50.9448 13.6427 50.6461 13.168C50.3528 12.6933 50.2061 12.1627 50.2061 11.576V11.496C50.2061 10.888 50.3501 10.3493 50.6381 9.88C50.9261 9.40533 51.3234 9.03467 51.8301 8.768C52.3368 8.50133 52.9154 8.368 53.5661 8.368C54.2008 8.368 54.7714 8.50667 55.2781 8.784C55.7848 9.06133 56.1848 9.43733 56.4781 9.912C56.7768 10.3813 56.9261 10.9093 56.9261 11.496V11.576C56.9261 12.184 56.7821 12.7227 56.4941 13.192C56.2061 13.6613 55.8088 14.032 55.3021 14.304C54.7954 14.5707 54.2168 14.704 53.5661 14.704ZM53.5661 13.52C54.1474 13.52 54.6221 13.344 54.9901 12.992C55.3634 12.6347 55.5501 12.1813 55.5501 11.632V11.504C55.5501 10.9493 55.3634 10.496 54.9901 10.144C54.6221 9.792 54.1474 9.616 53.5661 9.616C52.9848 9.616 52.5074 9.792 52.1341 10.144C51.7661 10.496 51.5821 10.9493 51.5821 11.504V11.632C51.5821 12.1813 51.7661 12.6347 52.1341 12.992C52.5074 13.344 52.9848 13.52 53.5661 13.52ZM55.4221 9.32L54.8621 9.032C55.0488 8.30667 55.3688 7.752 55.8221 7.368C56.2754 6.984 56.8408 6.792 57.5181 6.792V8.392C56.5848 8.392 55.8861 8.70133 55.4221 9.32ZM64.2878 17.256C63.4025 17.256 62.7038 16.9973 62.1918 16.48C61.6852 15.9573 61.4318 15.24 61.4318 14.328V5.32H62.8718V14.176C62.8718 15.3227 63.3732 15.896 64.3758 15.896C64.6585 15.896 64.9198 15.8427 65.1598 15.736C65.4052 15.624 65.6638 15.4453 65.9358 15.2L66.7678 16.296C66.4212 16.6213 66.0425 16.8613 65.6318 17.016C65.2212 17.176 64.7732 17.256 64.2878 17.256ZM58.9598 6.584V5.32H62.1918V6.584H58.9598ZM72.3456 17.256C71.5403 17.256 70.8363 17.0773 70.2336 16.72C69.6363 16.3573 69.1723 15.8533 68.8416 15.208C68.5109 14.5573 68.3456 13.7973 68.3456 12.928V12.624C68.3456 11.7707 68.5083 11.0267 68.8336 10.392C69.1643 9.752 69.6256 9.256 70.2176 8.904C70.8096 8.54667 71.5003 8.368 72.2896 8.368C72.9989 8.368 73.6149 8.52267 74.1376 8.832C74.6656 9.136 75.0736 9.568 75.3616 10.128C75.6549 10.6827 75.8016 11.3333 75.8016 12.08C75.8016 12.2827 75.7936 12.48 75.7776 12.672C75.7669 12.8587 75.7483 13.0427 75.7216 13.224H69.2496V12.064H74.3616V12.032C74.3616 11.3013 74.1723 10.7227 73.7936 10.296C73.4203 9.864 72.9136 9.648 72.2736 9.648C71.5163 9.648 70.9109 9.91733 70.4576 10.456C70.0096 10.9893 69.7856 11.7253 69.7856 12.664V12.888C69.7856 13.8267 70.0176 14.5707 70.4816 15.12C70.9509 15.6693 71.5856 15.944 72.3856 15.944C73.3509 15.944 74.0816 15.5093 74.5776 14.64L75.7456 15.384C75.3883 16.008 74.9269 16.4773 74.3616 16.792C73.7963 17.1013 73.1243 17.256 72.3456 17.256Z"/>
</mask>
<path d="M26.1048 17.256C25.1715 17.256 24.3688 17.0267 23.6968 16.568C23.0302 16.104 22.5182 15.44 22.1608 14.576C21.8035 13.712 21.6248 12.6747 21.6248 11.464V11.192C21.6248 9.95467 21.8035 8.896 22.1608 8.016C22.5182 7.136 23.0302 6.46133 23.6968 5.992C24.3688 5.52267 25.1742 5.288 26.1128 5.288C26.9982 5.288 27.7502 5.50133 28.3688 5.928C28.9875 6.34933 29.4515 6.96533 29.7608 7.776L28.4168 8.376C28.2088 7.81067 27.9155 7.38933 27.5368 7.112C27.1635 6.83467 26.6995 6.696 26.1448 6.696C25.1795 6.696 24.4355 7.08267 23.9128 7.856C23.3902 8.62933 23.1288 9.728 23.1288 11.152V11.504C23.1288 12.9013 23.3848 13.976 23.8968 14.728C24.4142 15.4747 25.1528 15.848 26.1128 15.848C26.9235 15.848 27.5395 15.5707 27.9608 15.016C28.3875 14.456 28.6008 13.6427 28.6008 12.576V12.152H25.9528V10.768H30.0408V12.44C30.0408 13.96 29.6942 15.144 29.0008 15.992C28.3128 16.8347 27.3475 17.256 26.1048 17.256ZM35.0106 17.256C34.2373 17.256 33.5573 17.0747 32.9706 16.712C32.3893 16.3493 31.9359 15.8427 31.6106 15.192C31.2853 14.536 31.1226 13.7787 31.1226 12.92V12.704C31.1226 11.84 31.2853 11.0827 31.6106 10.432C31.9359 9.78133 32.3893 9.27467 32.9706 8.912C33.5573 8.54933 34.2373 8.368 35.0106 8.368C35.7839 8.368 36.4613 8.54933 37.0426 8.912C37.6293 9.27467 38.0853 9.78133 38.4106 10.432C38.7359 11.0827 38.8986 11.84 38.8986 12.704V12.92C38.8986 13.7787 38.7359 14.536 38.4106 15.192C38.0853 15.8427 37.6293 16.3493 37.0426 16.712C36.4613 17.0747 35.7839 17.256 35.0106 17.256ZM35.0106 15.912C35.7573 15.912 36.3439 15.6427 36.7706 15.104C37.1973 14.5653 37.4106 13.8293 37.4106 12.896V12.728C37.4106 11.7893 37.1973 11.0533 36.7706 10.52C36.3439 9.98133 35.7573 9.712 35.0106 9.712C34.2693 9.712 33.6826 9.98133 33.2506 10.52C32.8239 11.0533 32.6106 11.7893 32.6106 12.728V12.896C32.6106 13.8293 32.8239 14.5653 33.2506 15.104C33.6826 15.6427 34.2693 15.912 35.0106 15.912ZM44.2843 17.256C43.511 17.256 42.831 17.0747 42.2443 16.712C41.663 16.3493 41.2097 15.8427 40.8843 15.192C40.559 14.536 40.3963 13.7787 40.3963 12.92V12.704C40.3963 11.84 40.559 11.0827 40.8843 10.432C41.2097 9.78133 41.663 9.27467 42.2443 8.912C42.831 8.54933 43.511 8.368 44.2843 8.368C45.0577 8.368 45.735 8.54933 46.3163 8.912C46.903 9.27467 47.359 9.78133 47.6843 10.432C48.0097 11.0827 48.1723 11.84 48.1723 12.704V12.92C48.1723 13.7787 48.0097 14.536 47.6843 15.192C47.359 15.8427 46.903 16.3493 46.3163 16.712C45.735 17.0747 45.0577 17.256 44.2843 17.256ZM44.2843 15.912C45.031 15.912 45.6177 15.6427 46.0443 15.104C46.471 14.5653 46.6843 13.8293 46.6843 12.896V12.728C46.6843 11.7893 46.471 11.0533 46.0443 10.52C45.6177 9.98133 45.031 9.712 44.2843 9.712C43.543 9.712 42.9563 9.98133 42.5243 10.52C42.0977 11.0533 41.8843 11.7893 41.8843 12.728V12.896C41.8843 13.8293 42.0977 14.5653 42.5243 15.104C42.9563 15.6427 43.543 15.912 44.2843 15.912ZM53.5021 21.576C52.6701 21.576 51.9501 21.4613 51.3421 21.232C50.7394 21.0027 50.2728 20.6773 49.9421 20.256C49.6114 19.84 49.4461 19.344 49.4461 18.768C49.4461 18.1813 49.6141 17.6693 49.9501 17.232C50.2914 16.8 50.7688 16.48 51.3821 16.272L51.7341 16.968C51.4194 17.1333 51.1768 17.3547 51.0061 17.632C50.8354 17.9147 50.7501 18.232 50.7501 18.584C50.7501 19.1493 50.9794 19.576 51.4381 19.864C51.9021 20.152 52.5901 20.296 53.5021 20.296C54.3821 20.296 55.0808 20.1307 55.5981 19.8C56.1154 19.4693 56.3741 19.0213 56.3741 18.456C56.3741 17.6347 55.8594 17.224 54.8301 17.224H50.9101V16.76L52.5181 14.184L53.4061 14.36L52.7741 16.008H54.9421C55.8274 16.008 56.5154 16.224 57.0061 16.656C57.5021 17.0827 57.7501 17.6773 57.7501 18.44C57.7501 19.08 57.5768 19.6347 57.2301 20.104C56.8834 20.5733 56.3928 20.936 55.7581 21.192C55.1234 21.448 54.3714 21.576 53.5021 21.576ZM53.5661 14.704C52.9368 14.704 52.3661 14.568 51.8541 14.296C51.3474 14.0187 50.9448 13.6427 50.6461 13.168C50.3528 12.6933 50.2061 12.1627 50.2061 11.576V11.496C50.2061 10.888 50.3501 10.3493 50.6381 9.88C50.9261 9.40533 51.3234 9.03467 51.8301 8.768C52.3368 8.50133 52.9154 8.368 53.5661 8.368C54.2008 8.368 54.7714 8.50667 55.2781 8.784C55.7848 9.06133 56.1848 9.43733 56.4781 9.912C56.7768 10.3813 56.9261 10.9093 56.9261 11.496V11.576C56.9261 12.184 56.7821 12.7227 56.4941 13.192C56.2061 13.6613 55.8088 14.032 55.3021 14.304C54.7954 14.5707 54.2168 14.704 53.5661 14.704ZM53.5661 13.52C54.1474 13.52 54.6221 13.344 54.9901 12.992C55.3634 12.6347 55.5501 12.1813 55.5501 11.632V11.504C55.5501 10.9493 55.3634 10.496 54.9901 10.144C54.6221 9.792 54.1474 9.616 53.5661 9.616C52.9848 9.616 52.5074 9.792 52.1341 10.144C51.7661 10.496 51.5821 10.9493 51.5821 11.504V11.632C51.5821 12.1813 51.7661 12.6347 52.1341 12.992C52.5074 13.344 52.9848 13.52 53.5661 13.52ZM55.4221 9.32L54.8621 9.032C55.0488 8.30667 55.3688 7.752 55.8221 7.368C56.2754 6.984 56.8408 6.792 57.5181 6.792V8.392C56.5848 8.392 55.8861 8.70133 55.4221 9.32ZM64.2878 17.256C63.4025 17.256 62.7038 16.9973 62.1918 16.48C61.6852 15.9573 61.4318 15.24 61.4318 14.328V5.32H62.8718V14.176C62.8718 15.3227 63.3732 15.896 64.3758 15.896C64.6585 15.896 64.9198 15.8427 65.1598 15.736C65.4052 15.624 65.6638 15.4453 65.9358 15.2L66.7678 16.296C66.4212 16.6213 66.0425 16.8613 65.6318 17.016C65.2212 17.176 64.7732 17.256 64.2878 17.256ZM58.9598 6.584V5.32H62.1918V6.584H58.9598ZM72.3456 17.256C71.5403 17.256 70.8363 17.0773 70.2336 16.72C69.6363 16.3573 69.1723 15.8533 68.8416 15.208C68.5109 14.5573 68.3456 13.7973 68.3456 12.928V12.624C68.3456 11.7707 68.5083 11.0267 68.8336 10.392C69.1643 9.752 69.6256 9.256 70.2176 8.904C70.8096 8.54667 71.5003 8.368 72.2896 8.368C72.9989 8.368 73.6149 8.52267 74.1376 8.832C74.6656 9.136 75.0736 9.568 75.3616 10.128C75.6549 10.6827 75.8016 11.3333 75.8016 12.08C75.8016 12.2827 75.7936 12.48 75.7776 12.672C75.7669 12.8587 75.7483 13.0427 75.7216 13.224H69.2496V12.064H74.3616V12.032C74.3616 11.3013 74.1723 10.7227 73.7936 10.296C73.4203 9.864 72.9136 9.648 72.2736 9.648C71.5163 9.648 70.9109 9.91733 70.4576 10.456C70.0096 10.9893 69.7856 11.7253 69.7856 12.664V12.888C69.7856 13.8267 70.0176 14.5707 70.4816 15.12C70.9509 15.6693 71.5856 15.944 72.3856 15.944C73.3509 15.944 74.0816 15.5093 74.5776 14.64L75.7456 15.384C75.3883 16.008 74.9269 16.4773 74.3616 16.792C73.7963 17.1013 73.1243 17.256 72.3456 17.256Z" fill="black"/>
<path d="M23.6968 16.568L23.5826 16.7322L23.5841 16.7332L23.6968 16.568ZM22.1608 14.576L21.976 14.6524V14.6524L22.1608 14.576ZM22.1608 8.016L22.3461 8.09124V8.09124L22.1608 8.016ZM23.6968 5.992L23.5823 5.82803L23.5817 5.82846L23.6968 5.992ZM28.3688 5.928L28.2553 6.09264L28.2563 6.09331L28.3688 5.928ZM29.7608 7.776L29.8424 7.95863L30.0152 7.88149L29.9477 7.7047L29.7608 7.776ZM28.4168 8.376L28.2291 8.44506L28.303 8.64584L28.4984 8.55863L28.4168 8.376ZM27.5368 7.112L27.4176 7.27255L27.4187 7.27335L27.5368 7.112ZM23.9128 7.856L24.0785 7.96799V7.96799L23.9128 7.856ZM23.8968 14.728L23.7315 14.8406L23.7324 14.8419L23.8968 14.728ZM27.9608 15.016L27.8018 14.8948L27.8016 14.895L27.9608 15.016ZM28.6008 12.152H28.8008V11.952H28.6008V12.152ZM25.9528 12.152H25.7528V12.352H25.9528V12.152ZM25.9528 10.768V10.568H25.7528V10.768H25.9528ZM30.0408 10.768H30.2408V10.568H30.0408V10.768ZM29.0008 15.992L28.846 15.8654L28.8459 15.8655L29.0008 15.992ZM26.1048 17.256V17.056C25.2056 17.056 24.4437 16.8356 23.8096 16.4028L23.6968 16.568L23.5841 16.7332C24.294 17.2177 25.1374 17.456 26.1048 17.456V17.256ZM23.6968 16.568L23.8111 16.4038C23.1804 15.9649 22.6906 15.3336 22.3457 14.4996L22.1608 14.576L21.976 14.6524C22.3457 15.5464 22.88 16.2431 23.5826 16.7322L23.6968 16.568ZM22.1608 14.576L22.3457 14.4996C22.0008 13.6658 21.8248 12.6558 21.8248 11.464H21.6248H21.4248C21.4248 12.6935 21.6062 13.7582 21.976 14.6524L22.1608 14.576ZM21.6248 11.464H21.8248V11.192H21.6248H21.4248V11.464H21.6248ZM21.6248 11.192H21.8248C21.8248 9.97303 22.001 8.94131 22.3461 8.09124L22.1608 8.016L21.9755 7.94075C21.606 8.85069 21.4248 9.9363 21.4248 11.192H21.6248ZM22.1608 8.016L22.3461 8.09124C22.6915 7.24081 23.1816 6.59934 23.812 6.15554L23.6968 5.992L23.5817 5.82846C22.8788 6.32333 22.3449 7.03118 21.9755 7.94075L22.1608 8.016ZM23.6968 5.992L23.8114 6.15597C24.4451 5.71338 25.209 5.488 26.1128 5.488V5.288V5.088C25.1394 5.088 24.2926 5.33195 23.5823 5.82803L23.6968 5.992ZM26.1128 5.288V5.488C26.965 5.488 27.6756 5.69287 28.2553 6.09264L28.3688 5.928L28.4824 5.76336C27.8247 5.30979 27.0313 5.088 26.1128 5.088V5.288ZM28.3688 5.928L28.2563 6.09331C28.836 6.48812 29.2768 7.06856 29.574 7.8473L29.7608 7.776L29.9477 7.7047C29.6262 6.86211 29.139 6.21054 28.4814 5.76269L28.3688 5.928ZM29.7608 7.776L29.6793 7.59337L28.3353 8.19337L28.4168 8.376L28.4984 8.55863L29.8424 7.95863L29.7608 7.776ZM28.4168 8.376L28.6045 8.30694C28.3868 7.71506 28.0733 7.25701 27.655 6.95065L27.5368 7.112L27.4187 7.27335C27.7577 7.52166 28.0309 7.90627 28.2291 8.44506L28.4168 8.376ZM27.5368 7.112L27.6561 6.95145C27.242 6.64385 26.734 6.496 26.1448 6.496V6.696V6.896C26.6651 6.896 27.085 7.02549 27.4176 7.27255L27.5368 7.112ZM26.1448 6.696V6.496C25.1158 6.496 24.3085 6.91343 23.7471 7.74401L23.9128 7.856L24.0785 7.96799C24.5625 7.25191 25.2432 6.896 26.1448 6.896V6.696ZM23.9128 7.856L23.7471 7.74401C23.1932 8.56358 22.9288 9.70767 22.9288 11.152H23.1288H23.3288C23.3288 9.74833 23.5871 8.69509 24.0785 7.96799L23.9128 7.856ZM23.1288 11.152H22.9288V11.504H23.1288H23.3288V11.152H23.1288ZM23.1288 11.504H22.9288C22.9288 12.9214 23.1878 14.042 23.7315 14.8406L23.8968 14.728L24.0622 14.6154C23.5819 13.91 23.3288 12.8812 23.3288 11.504H23.1288ZM23.8968 14.728L23.7324 14.8419C24.2896 15.646 25.0917 16.048 26.1128 16.048V15.848V15.648C25.214 15.648 24.5388 15.3033 24.0612 14.6141L23.8968 14.728ZM26.1128 15.848V16.048C26.9744 16.048 27.6545 15.75 28.1201 15.137L27.9608 15.016L27.8016 14.895C27.4246 15.3913 26.8726 15.648 26.1128 15.648V15.848ZM27.9608 15.016L28.1199 15.1372C28.5837 14.5285 28.8008 13.6651 28.8008 12.576H28.6008H28.4008C28.4008 13.6203 28.1913 14.3835 27.8018 14.8948L27.9608 15.016ZM28.6008 12.576H28.8008V12.152H28.6008H28.4008V12.576H28.6008ZM28.6008 12.152V11.952H25.9528V12.152V12.352H28.6008V12.152ZM25.9528 12.152H26.1528V10.768H25.9528H25.7528V12.152H25.9528ZM25.9528 10.768V10.968H30.0408V10.768V10.568H25.9528V10.768ZM30.0408 10.768H29.8408V12.44H30.0408H30.2408V10.768H30.0408ZM30.0408 12.44H29.8408C29.8408 13.9316 29.5006 15.0648 28.846 15.8654L29.0008 15.992L29.1557 16.1186C29.8877 15.2232 30.2408 13.9884 30.2408 12.44H30.0408ZM29.0008 15.992L28.8459 15.8655C28.2016 16.6547 27.2971 17.056 26.1048 17.056V17.256V17.456C27.398 17.456 28.4241 17.0146 29.1558 16.1185L29.0008 15.992ZM32.9706 16.712L32.8647 16.8817L32.8654 16.8821L32.9706 16.712ZM31.6106 15.192L31.4314 15.2809L31.4317 15.2814L31.6106 15.192ZM32.9706 8.912L32.8654 8.74188L32.8647 8.74231L32.9706 8.912ZM37.0426 8.912L36.9367 9.08169L36.9374 9.08212L37.0426 8.912ZM38.4106 10.432L38.5895 10.3426V10.3426L38.4106 10.432ZM38.4106 15.192L38.5895 15.2814L38.5898 15.2809L38.4106 15.192ZM37.0426 16.712L36.9374 16.5419L36.9367 16.5423L37.0426 16.712ZM36.7706 15.104L36.9274 15.2282V15.2282L36.7706 15.104ZM36.7706 10.52L36.6138 10.6442L36.6144 10.6449L36.7706 10.52ZM33.2506 10.52L33.0946 10.3949L33.0944 10.3951L33.2506 10.52ZM33.2506 15.104L33.0938 15.2282L33.0946 15.2291L33.2506 15.104ZM35.0106 17.256V17.056C34.2698 17.056 33.6271 16.8827 33.0758 16.5419L32.9706 16.712L32.8654 16.8821C33.4874 17.2666 34.2047 17.456 35.0106 17.456V17.256ZM32.9706 16.712L33.0765 16.5423C32.5283 16.2004 32.0994 15.7224 31.7895 15.1026L31.6106 15.192L31.4317 15.2814C31.7725 15.963 32.2502 16.4983 32.8647 16.8817L32.9706 16.712ZM31.6106 15.192L31.7898 15.1031C31.4803 14.4791 31.3226 13.7531 31.3226 12.92H31.1226H30.9226C30.9226 13.8042 31.0902 14.5929 31.4314 15.2809L31.6106 15.192ZM31.1226 12.92H31.3226V12.704H31.1226H30.9226V12.92H31.1226ZM31.1226 12.704H31.3226C31.3226 11.8653 31.4804 11.1396 31.7895 10.5214L31.6106 10.432L31.4317 10.3426C31.0901 11.0257 30.9226 11.8147 30.9226 12.704H31.1226ZM31.6106 10.432L31.7895 10.5214C32.0994 9.90162 32.5283 9.42363 33.0765 9.08169L32.9706 8.912L32.8647 8.74231C32.2502 9.12571 31.7725 9.66105 31.4317 10.3426L31.6106 10.432ZM32.9706 8.912L33.0758 9.08212C33.6271 8.74129 34.2698 8.568 35.0106 8.568V8.368V8.168C34.2047 8.168 33.4874 8.35738 32.8654 8.74188L32.9706 8.912ZM35.0106 8.368V8.568C35.7514 8.568 36.3911 8.74129 36.9367 9.08169L37.0426 8.912L37.1485 8.74231C36.5314 8.35737 35.8164 8.168 35.0106 8.168V8.368ZM37.0426 8.912L36.9374 9.08212C37.4907 9.42417 37.922 9.90209 38.2317 10.5214L38.4106 10.432L38.5895 10.3426C38.2485 9.66058 37.7678 9.12516 37.1478 8.74188L37.0426 8.912ZM38.4106 10.432L38.2317 10.5214C38.5408 11.1396 38.6986 11.8653 38.6986 12.704H38.8986H39.0986C39.0986 11.8147 38.9311 11.0257 38.5895 10.3426L38.4106 10.432ZM38.8986 12.704H38.6986V12.92H38.8986H39.0986V12.704H38.8986ZM38.8986 12.92H38.6986C38.6986 13.7531 38.5409 14.4791 38.2314 15.1031L38.4106 15.192L38.5898 15.2809C38.931 14.5929 39.0986 13.8042 39.0986 12.92H38.8986ZM38.4106 15.192L38.2317 15.1026C37.922 15.7219 37.4907 16.1998 36.9374 16.5419L37.0426 16.712L37.1478 16.8821C37.7678 16.4988 38.2485 15.9634 38.5895 15.2814L38.4106 15.192ZM37.0426 16.712L36.9367 16.5423C36.3911 16.8827 35.7514 17.056 35.0106 17.056V17.256V17.456C35.8164 17.456 36.5314 17.2666 37.1485 16.8817L37.0426 16.712ZM35.0106 15.912V16.112C35.8123 16.112 36.4592 15.8193 36.9274 15.2282L36.7706 15.104L36.6138 14.9798C36.2287 15.466 35.7022 15.712 35.0106 15.712V15.912ZM36.7706 15.104L36.9274 15.2282C37.3906 14.6434 37.6106 13.8584 37.6106 12.896H37.4106H37.2106C37.2106 13.8003 37.0039 14.4873 36.6138 14.9798L36.7706 15.104ZM37.4106 12.896H37.6106V12.728H37.4106H37.2106V12.896H37.4106ZM37.4106 12.728H37.6106C37.6106 11.7608 37.3908 10.9751 36.9268 10.3951L36.7706 10.52L36.6144 10.6449C37.0037 11.1316 37.2106 11.8179 37.2106 12.728H37.4106ZM36.7706 10.52L36.9274 10.3958C36.4592 9.8047 35.8123 9.512 35.0106 9.512V9.712V9.912C35.7022 9.912 36.2287 10.158 36.6138 10.6442L36.7706 10.52ZM35.0106 9.712V9.512C34.2137 9.512 33.5676 9.80501 33.0946 10.3949L33.2506 10.52L33.4066 10.6451C33.7976 10.1577 34.3248 9.912 35.0106 9.912V9.712ZM33.2506 10.52L33.0944 10.3951C32.6304 10.9751 32.4106 11.7608 32.4106 12.728H32.6106H32.8106C32.8106 11.8179 33.0175 11.1316 33.4068 10.6449L33.2506 10.52ZM32.6106 12.728H32.4106V12.896H32.6106H32.8106V12.728H32.6106ZM32.6106 12.896H32.4106C32.4106 13.8584 32.6306 14.6434 33.0938 15.2282L33.2506 15.104L33.4074 14.9798C33.0173 14.4873 32.8106 13.8003 32.8106 12.896H32.6106ZM33.2506 15.104L33.0946 15.2291C33.5676 15.819 34.2137 16.112 35.0106 16.112V15.912V15.712C34.3248 15.712 33.7976 15.4663 33.4066 14.9789L33.2506 15.104ZM42.2443 16.712L42.1385 16.8817L42.1392 16.8821L42.2443 16.712ZM40.8843 15.192L40.7052 15.2809L40.7055 15.2814L40.8843 15.192ZM42.2443 8.912L42.1392 8.74188L42.1385 8.74231L42.2443 8.912ZM46.3163 8.912L46.2105 9.08169L46.2112 9.08212L46.3163 8.912ZM47.6843 10.432L47.8632 10.3426V10.3426L47.6843 10.432ZM47.6843 15.192L47.8632 15.2814L47.8635 15.2809L47.6843 15.192ZM46.3163 16.712L46.2112 16.5419L46.2105 16.5423L46.3163 16.712ZM46.0443 15.104L46.2011 15.2282V15.2282L46.0443 15.104ZM46.0443 10.52L45.8876 10.6442L45.8882 10.6449L46.0443 10.52ZM42.5243 10.52L42.3683 10.3949L42.3682 10.3951L42.5243 10.52ZM42.5243 15.104L42.3676 15.2282L42.3683 15.2291L42.5243 15.104ZM44.2843 17.256V17.056C43.5435 17.056 42.9009 16.8827 42.3495 16.5419L42.2443 16.712L42.1392 16.8821C42.7612 17.2666 43.4785 17.456 44.2843 17.456V17.256ZM42.2443 16.712L42.3502 16.5423C41.8021 16.2004 41.3731 15.7224 41.0632 15.1026L40.8843 15.192L40.7055 15.2814C41.0462 15.963 41.5239 16.4983 42.1385 16.8817L42.2443 16.712ZM40.8843 15.192L41.0635 15.1031C40.7541 14.4791 40.5963 13.7531 40.5963 12.92H40.3963H40.1963C40.1963 13.8042 40.364 14.5929 40.7052 15.2809L40.8843 15.192ZM40.3963 12.92H40.5963V12.704H40.3963H40.1963V12.92H40.3963ZM40.3963 12.704H40.5963C40.5963 11.8653 40.7542 11.1396 41.0632 10.5214L40.8843 10.432L40.7055 10.3426C40.3639 11.0257 40.1963 11.8147 40.1963 12.704H40.3963ZM40.8843 10.432L41.0632 10.5214C41.3731 9.90162 41.8021 9.42363 42.3502 9.08169L42.2443 8.912L42.1385 8.74231C41.5239 9.12571 41.0462 9.66105 40.7055 10.3426L40.8843 10.432ZM42.2443 8.912L42.3495 9.08212C42.9009 8.74129 43.5435 8.568 44.2843 8.568V8.368V8.168C43.4785 8.168 42.7612 8.35738 42.1392 8.74188L42.2443 8.912ZM44.2843 8.368V8.568C45.0252 8.568 45.6649 8.74129 46.2105 9.08169L46.3163 8.912L46.4222 8.74231C45.8052 8.35737 45.0902 8.168 44.2843 8.168V8.368ZM46.3163 8.912L46.2112 9.08212C46.7645 9.42417 47.1958 9.90209 47.5055 10.5214L47.6843 10.432L47.8632 10.3426C47.5222 9.66058 47.0415 9.12516 46.4215 8.74188L46.3163 8.912ZM47.6843 10.432L47.5055 10.5214C47.8145 11.1396 47.9723 11.8653 47.9723 12.704H48.1723H48.3723C48.3723 11.8147 48.2048 11.0257 47.8632 10.3426L47.6843 10.432ZM48.1723 12.704H47.9723V12.92H48.1723H48.3723V12.704H48.1723ZM48.1723 12.92H47.9723C47.9723 13.7531 47.8146 14.4791 47.5052 15.1031L47.6843 15.192L47.8635 15.2809C48.2047 14.5929 48.3723 13.8042 48.3723 12.92H48.1723ZM47.6843 15.192L47.5055 15.1026C47.1958 15.7219 46.7645 16.1998 46.2112 16.5419L46.3163 16.712L46.4215 16.8821C47.0415 16.4988 47.5222 15.9634 47.8632 15.2814L47.6843 15.192ZM46.3163 16.712L46.2105 16.5423C45.6649 16.8827 45.0252 17.056 44.2843 17.056V17.256V17.456C45.0902 17.456 45.8052 17.2666 46.4222 16.8817L46.3163 16.712ZM44.2843 15.912V16.112C45.086 16.112 45.7329 15.8193 46.2011 15.2282L46.0443 15.104L45.8876 14.9798C45.5024 15.466 44.976 15.712 44.2843 15.712V15.912ZM46.0443 15.104L46.2011 15.2282C46.6643 14.6434 46.8843 13.8584 46.8843 12.896H46.6843H46.4843C46.4843 13.8003 46.2777 14.4873 45.8876 14.9798L46.0443 15.104ZM46.6843 12.896H46.8843V12.728H46.6843H46.4843V12.896H46.6843ZM46.6843 12.728H46.8843C46.8843 11.7608 46.6645 10.9751 46.2005 10.3951L46.0443 10.52L45.8882 10.6449C46.2775 11.1316 46.4843 11.8179 46.4843 12.728H46.6843ZM46.0443 10.52L46.2011 10.3958C45.7329 9.8047 45.086 9.512 44.2843 9.512V9.712V9.912C44.976 9.912 45.5024 10.158 45.8876 10.6442L46.0443 10.52ZM44.2843 9.712V9.512C43.4875 9.512 42.8414 9.80501 42.3683 10.3949L42.5243 10.52L42.6804 10.6451C43.0713 10.1577 43.5986 9.912 44.2843 9.912V9.712ZM42.5243 10.52L42.3682 10.3951C41.9042 10.9751 41.6843 11.7608 41.6843 12.728H41.8843H42.0843C42.0843 11.8179 42.2912 11.1316 42.6805 10.6449L42.5243 10.52ZM41.8843 12.728H41.6843V12.896H41.8843H42.0843V12.728H41.8843ZM41.8843 12.896H41.6843C41.6843 13.8584 41.9044 14.6434 42.3676 15.2282L42.5243 15.104L42.6811 14.9798C42.291 14.4873 42.0843 13.8003 42.0843 12.896H41.8843ZM42.5243 15.104L42.3683 15.2291C42.8414 15.819 43.4875 16.112 44.2843 16.112V15.912V15.712C43.5986 15.712 43.0713 15.4663 42.6804 14.9789L42.5243 15.104ZM51.3421 21.232L51.271 21.4189L51.2715 21.4191L51.3421 21.232ZM49.9421 20.256L50.0994 20.1325L50.0987 20.1316L49.9421 20.256ZM49.9501 17.232L49.7932 17.108L49.7915 17.1102L49.9501 17.232ZM51.3821 16.272L51.5606 16.1817L51.4822 16.0269L51.3179 16.0826L51.3821 16.272ZM51.7341 16.968L51.8271 17.145L52.0014 17.0535L51.9126 16.8777L51.7341 16.968ZM51.0061 17.632L50.8358 17.5272L50.8349 17.5286L51.0061 17.632ZM51.4381 19.864L51.3317 20.0334L51.3326 20.0339L51.4381 19.864ZM50.9101 17.224H50.7101V17.424H50.9101V17.224ZM50.9101 16.76L50.7404 16.6541L50.7101 16.7027V16.76H50.9101ZM52.5181 14.184L52.557 13.9878L52.4215 13.961L52.3484 14.0781L52.5181 14.184ZM53.4061 14.36L53.5928 14.4316L53.6778 14.21L53.445 14.1638L53.4061 14.36ZM52.7741 16.008L52.5874 15.9364L52.4832 16.208H52.7741V16.008ZM57.0061 16.656L56.8739 16.8061L56.8757 16.8076L57.0061 16.656ZM57.2301 20.104L57.0692 19.9852V19.9852L57.2301 20.104ZM55.7581 21.192L55.8329 21.3775H55.8329L55.7581 21.192ZM51.8541 14.296L51.7581 14.4715L51.7603 14.4726L51.8541 14.296ZM50.6461 13.168L50.476 13.2731L50.4768 13.2745L50.6461 13.168ZM50.6381 9.88L50.8086 9.9846L50.8091 9.98375L50.6381 9.88ZM51.8301 8.768L51.7369 8.59102V8.59102L51.8301 8.768ZM55.2781 8.784L55.3741 8.60856V8.60856L55.2781 8.784ZM56.4781 9.912L56.3079 10.0171L56.3094 10.0194L56.4781 9.912ZM56.4941 13.192L56.6646 13.2966V13.2966L56.4941 13.192ZM55.3021 14.304L55.3952 14.481L55.3967 14.4802L55.3021 14.304ZM54.9901 12.992L55.1283 13.1365L55.1284 13.1365L54.9901 12.992ZM54.9901 10.144L54.8518 10.2885L54.8529 10.2895L54.9901 10.144ZM52.1341 10.144L51.9969 9.99848L51.9958 9.99947L52.1341 10.144ZM52.1341 12.992L51.9948 13.1355L51.9969 13.1375L52.1341 12.992ZM55.4221 9.32L55.3306 9.49786L55.4808 9.57508L55.5821 9.44L55.4221 9.32ZM54.8621 9.032L54.6684 8.98215L54.6286 9.13682L54.7706 9.20986L54.8621 9.032ZM55.8221 7.368L55.6928 7.21539V7.21539L55.8221 7.368ZM57.5181 6.792H57.7181V6.592H57.5181V6.792ZM57.5181 8.392V8.592H57.7181V8.392H57.5181ZM53.5021 21.576V21.376C52.6878 21.376 51.9928 21.2637 51.4127 21.0449L51.3421 21.232L51.2715 21.4191C51.9074 21.659 52.6524 21.776 53.5021 21.776V21.576ZM51.3421 21.232L51.4132 21.0451C50.8376 20.826 50.4035 20.5199 50.0994 20.1325L49.9421 20.256L49.7848 20.3795C50.1421 20.8347 50.6413 21.1793 51.271 21.4189L51.3421 21.232ZM49.9421 20.256L50.0987 20.1316C49.7985 19.754 49.6461 19.3028 49.6461 18.768H49.4461H49.2461C49.2461 19.3852 49.4243 19.926 49.7855 20.3804L49.9421 20.256ZM49.4461 18.768H49.6461C49.6461 18.2224 49.8013 17.7539 50.1087 17.3538L49.9501 17.232L49.7915 17.1102C49.4269 17.5847 49.2461 18.1403 49.2461 18.768H49.4461ZM49.9501 17.232L50.107 17.356C50.4205 16.9593 50.863 16.6592 51.4463 16.4614L51.3821 16.272L51.3179 16.0826C50.6745 16.3008 50.1624 16.6407 49.7932 17.108L49.9501 17.232ZM51.3821 16.272L51.2036 16.3623L51.5556 17.0583L51.7341 16.968L51.9126 16.8777L51.5606 16.1817L51.3821 16.272ZM51.7341 16.968L51.6411 16.791C51.2976 16.9714 51.0269 17.2165 50.8358 17.5272L51.0061 17.632L51.1764 17.7368C51.3266 17.4928 51.5412 17.2953 51.8271 17.145L51.7341 16.968ZM51.0061 17.632L50.8349 17.5286C50.6441 17.8446 50.5501 18.1981 50.5501 18.584H50.7501H50.9501C50.9501 18.2659 51.0267 17.9848 51.1773 17.7354L51.0061 17.632ZM50.7501 18.584H50.5501C50.5501 19.2145 50.8118 19.7069 51.3317 20.0334L51.4381 19.864L51.5444 19.6946C51.1471 19.4451 50.9501 19.0842 50.9501 18.584H50.7501ZM51.4381 19.864L51.3326 20.0339C51.843 20.3507 52.5751 20.496 53.5021 20.496V20.296V20.096C52.6051 20.096 51.9612 19.9533 51.5436 19.6941L51.4381 19.864ZM53.5021 20.296V20.496C54.4045 20.496 55.1452 20.3268 55.7058 19.9685L55.5981 19.8L55.4904 19.6315C55.0163 19.9345 54.3596 20.096 53.5021 20.096V20.296ZM55.5981 19.8L55.7058 19.9685C56.2747 19.6049 56.5741 19.0963 56.5741 18.456H56.3741H56.1741C56.1741 18.9464 55.9561 19.3338 55.4904 19.6315L55.5981 19.8ZM56.3741 18.456H56.5741C56.5741 18.001 56.4293 17.6282 56.1128 17.3757C55.805 17.13 55.366 17.024 54.8301 17.024V17.224V17.424C55.3235 17.424 55.6565 17.5233 55.8634 17.6883C56.0616 17.8465 56.1741 18.0897 56.1741 18.456H56.3741ZM54.8301 17.224V17.024H50.9101V17.224V17.424H54.8301V17.224ZM50.9101 17.224H51.1101V16.76H50.9101H50.7101V17.224H50.9101ZM50.9101 16.76L51.0798 16.8659L52.6878 14.2899L52.5181 14.184L52.3484 14.0781L50.7404 16.6541L50.9101 16.76ZM52.5181 14.184L52.4792 14.3802L53.3672 14.5562L53.4061 14.36L53.445 14.1638L52.557 13.9878L52.5181 14.184ZM53.4061 14.36L53.2194 14.2884L52.5874 15.9364L52.7741 16.008L52.9608 16.0796L53.5928 14.4316L53.4061 14.36ZM52.7741 16.008V16.208H54.9421V16.008V15.808H52.7741V16.008ZM54.9421 16.008V16.208C55.7962 16.208 56.431 16.4161 56.8739 16.8061L57.0061 16.656L57.1383 16.5059C56.5999 16.0319 55.8587 15.808 54.9421 15.808V16.008ZM57.0061 16.656L56.8757 16.8076C57.32 17.1898 57.5501 17.7249 57.5501 18.44H57.7501H57.9501C57.9501 17.6298 57.6842 16.9755 57.1365 16.5044L57.0061 16.656ZM57.7501 18.44H57.5501C57.5501 19.0416 57.388 19.5536 57.0692 19.9852L57.2301 20.104L57.391 20.2228C57.7655 19.7157 57.9501 19.1184 57.9501 18.44H57.7501ZM57.2301 20.104L57.0692 19.9852C56.7481 20.4199 56.2897 20.7619 55.6833 21.0065L55.7581 21.192L55.8329 21.3775C56.4959 21.1101 57.0188 20.7267 57.391 20.2228L57.2301 20.104ZM55.7581 21.192L55.6833 21.0065C55.0779 21.2507 54.3524 21.376 53.5021 21.376V21.576V21.776C54.3904 21.776 55.169 21.6453 55.8329 21.3775L55.7581 21.192ZM53.5661 14.704V14.504C52.9666 14.504 52.4286 14.3747 51.9479 14.1194L51.8541 14.296L51.7603 14.4726C52.3036 14.7613 52.9069 14.904 53.5661 14.904V14.704ZM51.8541 14.296L51.9501 14.1206C51.4724 13.8591 51.0953 13.5064 50.8154 13.0615L50.6461 13.168L50.4768 13.2745C50.7942 13.7789 51.2224 14.1783 51.7581 14.4714L51.8541 14.296ZM50.6461 13.168L50.8162 13.0629C50.5434 12.6214 50.4061 12.1275 50.4061 11.576H50.2061H50.0061C50.0061 12.1978 50.1621 12.7652 50.476 13.2731L50.6461 13.168ZM50.2061 11.576H50.4061V11.496H50.2061H50.0061V11.576H50.2061ZM50.2061 11.496H50.4061C50.4061 10.921 50.5418 10.4192 50.8086 9.9846L50.6381 9.88L50.4676 9.7754C50.1583 10.2794 50.0061 10.855 50.0061 11.496H50.2061ZM50.6381 9.88L50.8091 9.98375C51.0777 9.5411 51.4476 9.1953 51.9232 8.94498L51.8301 8.768L51.7369 8.59102C51.1992 8.87403 50.7745 9.26956 50.4671 9.77625L50.6381 9.88ZM51.8301 8.768L51.9232 8.94498C52.3975 8.69539 52.9434 8.568 53.5661 8.568V8.368V8.168C52.8874 8.168 52.276 8.30728 51.7369 8.59102L51.8301 8.768ZM53.5661 8.368V8.568C54.1706 8.568 54.7077 8.69977 55.1821 8.95944L55.2781 8.784L55.3741 8.60856C54.8352 8.31356 54.2309 8.168 53.5661 8.168V8.368ZM55.2781 8.784L55.1821 8.95944C55.6595 9.22076 56.0335 9.57299 56.308 10.0171L56.4781 9.912L56.6482 9.80686C56.336 9.30168 55.91 8.90191 55.3741 8.60856L55.2781 8.784ZM56.4781 9.912L56.3094 10.0194C56.5865 10.4548 56.7261 10.9452 56.7261 11.496H56.9261H57.1261C57.1261 10.8735 56.9671 10.3078 56.6468 9.80462L56.4781 9.912ZM56.9261 11.496H56.7261V11.576H56.9261H57.1261V11.496H56.9261ZM56.9261 11.576H56.7261C56.7261 12.151 56.5903 12.6528 56.3236 13.0874L56.4941 13.192L56.6646 13.2966C56.9738 12.7926 57.1261 12.217 57.1261 11.576H56.9261ZM56.4941 13.192L56.3236 13.0874C56.055 13.5252 55.6844 13.8718 55.2075 14.1278L55.3021 14.304L55.3967 14.4802C55.9331 14.1922 56.3572 13.7975 56.6646 13.2966L56.4941 13.192ZM55.3021 14.304L55.2089 14.127C54.7347 14.3766 54.1888 14.504 53.5661 14.504V14.704V14.904C54.2447 14.904 54.8561 14.7647 55.3952 14.481L55.3021 14.304ZM53.5661 13.52V13.72C54.1911 13.72 54.7178 13.5292 55.1283 13.1365L54.9901 12.992L54.8519 12.8475C54.5264 13.1588 54.1038 13.32 53.5661 13.32V13.52ZM54.9901 12.992L55.1284 13.1365C55.5438 12.7388 55.7501 12.2321 55.7501 11.632H55.5501H55.3501C55.3501 12.1306 55.183 12.5305 54.8518 12.8475L54.9901 12.992ZM55.5501 11.632H55.7501V11.504H55.5501H55.3501V11.632H55.5501ZM55.5501 11.504H55.7501C55.7501 10.8992 55.5442 10.3916 55.1273 9.99848L54.9901 10.144L54.8529 10.2895C55.1827 10.6004 55.3501 10.9994 55.3501 11.504H55.5501ZM54.9901 10.144L55.1283 9.99947C54.7178 9.60678 54.1911 9.416 53.5661 9.416V9.616V9.816C54.1038 9.816 54.5264 9.97722 54.8519 10.2885L54.9901 10.144ZM53.5661 9.616V9.416C52.9411 9.416 52.4123 9.60677 51.9969 9.99848L52.1341 10.144L52.2713 10.2895C52.6025 9.97723 53.0285 9.816 53.5661 9.816V9.616ZM52.1341 10.144L51.9958 9.99947C51.5847 10.3928 51.3821 10.9002 51.3821 11.504H51.5821H51.7821C51.7821 10.9985 51.9475 10.5992 52.2723 10.2885L52.1341 10.144ZM51.5821 11.504H51.3821V11.632H51.5821H51.7821V11.504H51.5821ZM51.5821 11.632H51.3821C51.3821 12.2311 51.585 12.7376 51.9948 13.1355L52.1341 12.992L52.2734 12.8485C51.9472 12.5317 51.7821 12.1315 51.7821 11.632H51.5821ZM52.1341 12.992L51.9969 13.1375C52.4123 13.5292 52.9411 13.72 53.5661 13.72V13.52V13.32C53.0285 13.32 52.6025 13.1588 52.2713 12.8465L52.1341 12.992ZM55.4221 9.32L55.5136 9.14214L54.9536 8.85414L54.8621 9.032L54.7706 9.20986L55.3306 9.49786L55.4221 9.32ZM54.8621 9.032L55.0558 9.08185C55.2348 8.3861 55.537 7.8716 55.9514 7.52061L55.8221 7.368L55.6928 7.21539C55.2005 7.6324 54.8627 8.22723 54.6684 8.98215L54.8621 9.032ZM55.8221 7.368L55.9514 7.52061C56.3635 7.17147 56.8811 6.992 57.5181 6.992V6.792V6.592C56.8005 6.592 56.1873 6.79653 55.6928 7.21539L55.8221 7.368ZM57.5181 6.792H57.3181V8.392H57.5181H57.7181V6.792H57.5181ZM57.5181 8.392V8.192C56.5364 8.192 55.7719 8.52033 55.2621 9.2L55.4221 9.32L55.5821 9.44C56.0003 8.88234 56.6331 8.592 57.5181 8.592V8.392ZM62.1918 16.48L62.0482 16.6192L62.0497 16.6207L62.1918 16.48ZM61.4318 5.32V5.12H61.2318V5.32H61.4318ZM62.8718 5.32H63.0718V5.12H62.8718V5.32ZM65.1598 15.736L65.2411 15.9188L65.2429 15.9179L65.1598 15.736ZM65.9358 15.2L66.0951 15.0791L65.9635 14.9057L65.8019 15.0515L65.9358 15.2ZM66.7678 16.296L66.9047 16.4418L67.0361 16.3186L66.9271 16.1751L66.7678 16.296ZM65.6318 17.016L65.5614 16.8288L65.5592 16.8296L65.6318 17.016ZM58.9598 6.584H58.7598V6.784H58.9598V6.584ZM58.9598 5.32V5.12H58.7598V5.32H58.9598ZM62.1918 5.32H62.3918V5.12H62.1918V5.32ZM62.1918 6.584V6.784H62.3918V6.584H62.1918ZM64.2878 17.256V17.056C63.4436 17.056 62.8006 16.8107 62.334 16.3393L62.1918 16.48L62.0497 16.6207C62.6071 17.1839 63.3614 17.456 64.2878 17.456V17.256ZM62.1918 16.48L62.3354 16.3408C61.8735 15.8643 61.6318 15.2018 61.6318 14.328H61.4318H61.2318C61.2318 15.2782 61.4968 16.0504 62.0482 16.6192L62.1918 16.48ZM61.4318 14.328H61.6318V5.32H61.4318H61.2318V14.328H61.4318ZM61.4318 5.32V5.52H62.8718V5.32V5.12H61.4318V5.32ZM62.8718 5.32H62.6718V14.176H62.8718H63.0718V5.32H62.8718ZM62.8718 14.176H62.6718C62.6718 14.7741 62.802 15.26 63.0973 15.5977C63.3971 15.9405 63.8362 16.096 64.3758 16.096V15.896V15.696C63.9128 15.696 63.6 15.5649 63.3984 15.3343C63.1924 15.0987 63.0718 14.7246 63.0718 14.176H62.8718ZM64.3758 15.896V16.096C64.6843 16.096 64.9736 16.0376 65.2411 15.9188L65.1598 15.736L65.0786 15.5532C64.8661 15.6477 64.6327 15.696 64.3758 15.696V15.896ZM65.1598 15.736L65.2429 15.9179C65.5121 15.795 65.7877 15.603 66.0698 15.3485L65.9358 15.2L65.8019 15.0515C65.54 15.2877 65.2982 15.453 65.0768 15.5541L65.1598 15.736ZM65.9358 15.2L65.7765 15.3209L66.6085 16.4169L66.7678 16.296L66.9271 16.1751L66.0951 15.0791L65.9358 15.2ZM66.7678 16.296L66.631 16.1502C66.3019 16.459 65.9454 16.6842 65.5614 16.8288L65.6318 17.016L65.7023 17.2032C66.1396 17.0385 66.5405 16.7837 66.9047 16.4418L66.7678 16.296ZM65.6318 17.016L65.5592 16.8296C65.174 16.9798 64.7509 17.056 64.2878 17.056V17.256V17.456C64.7955 17.456 65.2684 17.3722 65.7045 17.2024L65.6318 17.016ZM58.9598 6.584H59.1598V5.32H58.9598H58.7598V6.584H58.9598ZM58.9598 5.32V5.52H62.1918V5.32V5.12H58.9598V5.32ZM62.1918 5.32H61.9918V6.584H62.1918H62.3918V5.32H62.1918ZM62.1918 6.584V6.384H58.9598V6.584V6.784H62.1918V6.584ZM70.2336 16.72L70.1298 16.891L70.1316 16.892L70.2336 16.72ZM68.8416 15.208L68.6633 15.2986L68.6636 15.2992L68.8416 15.208ZM68.8336 10.392L68.6559 10.3002L68.6556 10.3008L68.8336 10.392ZM70.2176 8.904L70.3198 9.07591L70.3209 9.07522L70.2176 8.904ZM74.1376 8.832L74.0357 9.00413L74.0378 9.00532L74.1376 8.832ZM75.3616 10.128L75.1837 10.2195L75.1848 10.2215L75.3616 10.128ZM75.7776 12.672L75.5782 12.6554L75.5779 12.6606L75.7776 12.672ZM75.7216 13.224V13.424H75.8943L75.9195 13.2531L75.7216 13.224ZM69.2496 13.224H69.0496V13.424H69.2496V13.224ZM69.2496 12.064V11.864H69.0496V12.064H69.2496ZM74.3616 12.064V12.264H74.5616V12.064H74.3616ZM73.7936 10.296L73.6423 10.4268L73.644 10.4288L73.7936 10.296ZM70.4576 10.456L70.3046 10.3272L70.3045 10.3274L70.4576 10.456ZM70.4816 15.12L70.3288 15.2491L70.3295 15.2499L70.4816 15.12ZM74.5776 14.64L74.685 14.4713L74.5079 14.3585L74.4039 14.5409L74.5776 14.64ZM75.7456 15.384L75.9192 15.4834L76.014 15.3178L75.853 15.2153L75.7456 15.384ZM74.3616 16.792L74.4576 16.9675L74.4589 16.9668L74.3616 16.792ZM72.3456 17.256V17.056C71.5707 17.056 70.903 16.8844 70.3356 16.548L70.2336 16.72L70.1316 16.892C70.7695 17.2703 71.5098 17.456 72.3456 17.456V17.256ZM70.2336 16.72L70.3374 16.549C69.7729 16.2063 69.334 15.7305 69.0196 15.1168L68.8416 15.208L68.6636 15.2992C69.0105 15.9762 69.4996 16.5083 70.1298 16.891L70.2336 16.72ZM68.8416 15.208L69.0199 15.1174C68.706 14.4997 68.5456 13.7718 68.5456 12.928H68.3456H68.1456C68.1456 13.8228 68.3159 14.615 68.6633 15.2986L68.8416 15.208ZM68.3456 12.928H68.5456V12.624H68.3456H68.1456V12.928H68.3456ZM68.3456 12.624H68.5456C68.5456 11.7962 68.7033 11.0846 69.0116 10.4832L68.8336 10.392L68.6556 10.3008C68.3132 10.9687 68.1456 11.7451 68.1456 12.624H68.3456ZM68.8336 10.392L69.0113 10.4838C69.3256 9.87544 69.7615 9.40789 70.3198 9.07591L70.2176 8.904L70.1154 8.73209C69.4897 9.10411 69.0029 9.62856 68.6559 10.3002L68.8336 10.392ZM70.2176 8.904L70.3209 9.07522C70.8775 8.73926 71.5314 8.568 72.2896 8.568V8.368V8.168C71.4691 8.168 70.7416 8.35407 70.1142 8.73277L70.2176 8.904ZM72.2896 8.368V8.568C72.9692 8.568 73.5488 8.71591 74.0357 9.00412L74.1376 8.832L74.2395 8.65988C73.6811 8.32943 73.0287 8.168 72.2896 8.168V8.368ZM74.1376 8.832L74.0378 9.00532C74.5313 9.28945 74.9127 9.69248 75.1837 10.2195L75.3616 10.128L75.5395 10.0365C75.2345 9.44351 74.7999 8.98255 74.2374 8.65868L74.1376 8.832ZM75.3616 10.128L75.1848 10.2215C75.4603 10.7424 75.6016 11.3598 75.6016 12.08H75.8016H76.0016C76.0016 11.3069 75.8496 10.623 75.5384 10.0345L75.3616 10.128ZM75.8016 12.08H75.6016C75.6016 12.2774 75.5938 12.4692 75.5783 12.6554L75.7776 12.672L75.9769 12.6886C75.9934 12.4908 76.0016 12.2879 76.0016 12.08H75.8016ZM75.7776 12.672L75.5779 12.6606C75.5676 12.8415 75.5495 13.0196 75.5237 13.1949L75.7216 13.224L75.9195 13.2531C75.947 13.0658 75.9663 12.8759 75.9773 12.6834L75.7776 12.672ZM75.7216 13.224V13.024H69.2496V13.224V13.424H75.7216V13.224ZM69.2496 13.224H69.4496V12.064H69.2496H69.0496V13.224H69.2496ZM69.2496 12.064V12.264H74.3616V12.064V11.864H69.2496V12.064ZM74.3616 12.064H74.5616V12.032H74.3616H74.1616V12.064H74.3616ZM74.3616 12.032H74.5616C74.5616 11.2665 74.3626 10.6359 73.9432 10.1632L73.7936 10.296L73.644 10.4288C73.9819 10.8095 74.1616 11.3361 74.1616 12.032H74.3616ZM73.7936 10.296L73.9449 10.1652C73.5287 9.68365 72.9638 9.448 72.2736 9.448V9.648V9.848C72.8634 9.848 73.3118 10.0444 73.6423 10.4268L73.7936 10.296ZM72.2736 9.648V9.448C71.4623 9.448 70.7991 9.73965 70.3046 10.3272L70.4576 10.456L70.6106 10.5848C71.0228 10.095 71.5702 9.848 72.2736 9.848V9.648ZM70.4576 10.456L70.3045 10.3274C69.8171 10.9076 69.5856 11.6947 69.5856 12.664H69.7856H69.9856C69.9856 11.756 70.2021 11.0711 70.6107 10.5846L70.4576 10.456ZM69.7856 12.664H69.5856V12.888H69.7856H69.9856V12.664H69.7856ZM69.7856 12.888H69.5856C69.5856 13.8593 69.826 14.6538 70.3288 15.2491L70.4816 15.12L70.6344 14.9909C70.2092 14.4875 69.9856 13.7941 69.9856 12.888H69.7856ZM70.4816 15.12L70.3295 15.2499C70.8412 15.8488 71.5342 16.144 72.3856 16.144V15.944V15.744C71.637 15.744 71.0606 15.4898 70.6337 14.9901L70.4816 15.12ZM72.3856 15.944V16.144C73.426 16.144 74.2213 15.668 74.7513 14.7391L74.5776 14.64L74.4039 14.5409C73.9419 15.3507 73.2759 15.744 72.3856 15.744V15.944ZM74.5776 14.64L74.4701 14.8087L75.6381 15.5527L75.7456 15.384L75.853 15.2153L74.685 14.4713L74.5776 14.64ZM75.7456 15.384L75.572 15.2846C75.2307 15.8806 74.7944 16.3222 74.2643 16.6172L74.3616 16.792L74.4589 16.9668C75.0595 16.6325 75.5458 16.1354 75.9192 15.4834L75.7456 15.384ZM74.3616 16.792L74.2656 16.6165C73.7352 16.9067 73.0977 17.056 72.3456 17.056V17.256V17.456C73.1509 17.456 73.8573 17.2959 74.4576 16.9675L74.3616 16.792Z" fill="black" mask="url(#path-5-outside-1_1_17)"/>
</svg>
