<svg width="93" height="21" viewBox="0 0 93 21" fill="none" xmlns="http://www.w3.org/2000/svg">
<path d="M15.705 1.30875H5.235C3.06659 1.30875 1.30875 3.06659 1.30875 5.235V15.705C1.30875 17.8734 3.06659 19.6312 5.235 19.6312H15.705C17.8734 19.6312 19.6313 17.8734 19.6313 15.705V5.235C19.6313 3.06659 17.8734 1.30875 15.705 1.30875Z" fill="url(#paint0_radial_1_19)"/>
<path d="M15.705 1.30875H5.235C3.06659 1.30875 1.30875 3.06659 1.30875 5.235V15.705C1.30875 17.8734 3.06659 19.6312 5.235 19.6312H15.705C17.8734 19.6312 19.6313 17.8734 19.6313 15.705V5.235C19.6313 3.06659 17.8734 1.30875 15.705 1.30875Z" fill="url(#paint1_radial_1_19)"/>
<path d="M15.705 1.30875H5.235C3.06659 1.30875 1.30875 3.06659 1.30875 5.235V15.705C1.30875 17.8734 3.06659 19.6312 5.235 19.6312H15.705C17.8734 19.6312 19.6313 17.8734 19.6313 15.705V5.235C19.6313 3.06659 17.8734 1.30875 15.705 1.30875Z" fill="url(#paint2_radial_1_19)"/>
<path d="M15.0506 6.87094C15.0506 7.41302 14.6111 7.8525 14.0691 7.8525C13.527 7.8525 13.0875 7.41302 13.0875 6.87094C13.0875 6.32883 13.527 5.88937 14.0691 5.88937C14.6111 5.88937 15.0506 6.32883 15.0506 6.87094Z" fill="white"/>
<path fill-rule="evenodd" clip-rule="evenodd" d="M10.47 13.7419C12.277 13.7419 13.7419 12.277 13.7419 10.47C13.7419 8.663 12.277 7.19812 10.47 7.19812C8.66301 7.19812 7.19813 8.663 7.19813 10.47C7.19813 12.277 8.66301 13.7419 10.47 13.7419ZM10.47 12.4331C11.5542 12.4331 12.4331 11.5542 12.4331 10.47C12.4331 9.38576 11.5542 8.50687 10.47 8.50687C9.38577 8.50687 8.50688 9.38576 8.50688 10.47C8.50688 11.5542 9.38577 12.4331 10.47 12.4331Z" fill="white"/>
<path fill-rule="evenodd" clip-rule="evenodd" d="M3.92625 10.2083C3.92625 8.00936 3.92625 6.90988 4.35418 6.07003C4.7306 5.33125 5.33124 4.73061 6.07002 4.35419C6.90987 3.92625 8.00935 3.92625 10.2082 3.92625H10.7317C12.9306 3.92625 14.0301 3.92625 14.8699 4.35419C15.6087 4.73061 16.2094 5.33125 16.5858 6.07003C17.0137 6.90988 17.0137 8.00936 17.0137 10.2083V10.7318C17.0137 12.9307 17.0137 14.0301 16.5858 14.87C16.2094 15.6087 15.6087 16.2094 14.8699 16.5858C14.0301 17.0138 12.9306 17.0138 10.7317 17.0138H10.2082C8.00935 17.0138 6.90987 17.0138 6.07002 16.5858C5.33124 16.2094 4.7306 15.6087 4.35418 14.87C3.92625 14.0301 3.92625 12.9307 3.92625 10.7318V10.2083ZM10.2082 5.235H10.7317C11.8528 5.235 12.6148 5.23603 13.2039 5.28415C13.7777 5.33103 14.0712 5.416 14.2758 5.52029C14.7683 5.77125 15.1687 6.17167 15.4197 6.66416C15.524 6.86885 15.609 7.16227 15.6559 7.73609C15.7039 8.32516 15.705 9.08718 15.705 10.2083V10.7318C15.705 11.8528 15.7039 12.6148 15.6559 13.2039C15.609 13.7777 15.524 14.0712 15.4197 14.2758C15.1687 14.7683 14.7683 15.1687 14.2758 15.4197C14.0712 15.524 13.7777 15.609 13.2039 15.6559C12.6148 15.704 11.8528 15.705 10.7317 15.705H10.2082C9.08717 15.705 8.32515 15.704 7.73608 15.6559C7.16226 15.609 6.86884 15.524 6.66415 15.4197C6.17166 15.1687 5.77124 14.7683 5.52028 14.2758C5.41599 14.0712 5.33102 13.7777 5.28414 13.2039C5.23602 12.6148 5.235 11.8528 5.235 10.7318V10.2083C5.235 9.08718 5.23602 8.32516 5.28414 7.73609C5.33102 7.16227 5.41599 6.86885 5.52028 6.66416C5.77124 6.17167 6.17166 5.77125 6.66415 5.52029C6.86884 5.416 7.16226 5.33103 7.73608 5.28415C8.32515 5.23603 9.08717 5.235 10.2082 5.235Z" fill="white"/>
<mask id="path-7-outside-1_1_19" maskUnits="userSpaceOnUse" x="21.94" y="3.97" width="71" height="16" fill="black">
<rect fill="white" x="21.94" y="3.97" width="71" height="16"/>
<path d="M22.708 15.97V14.658H24.916V6.082H22.708V4.77H28.532V6.082H26.324V14.658H28.532V15.97H22.708ZM30.3234 15.97V8.322H31.6354V9.586C31.8167 9.11667 32.1154 8.75933 32.5314 8.514C32.958 8.258 33.4327 8.13 33.9554 8.13C34.7767 8.13 35.406 8.37 35.8434 8.85C36.2807 9.31933 36.4994 9.95933 36.4994 10.77V15.97H35.1874V10.882C35.1874 10.3807 35.0594 10.002 34.8034 9.746C34.5474 9.47933 34.1847 9.346 33.7154 9.346C33.4167 9.346 33.1447 9.41 32.8994 9.538C32.6647 9.65533 32.4567 9.80467 32.2754 9.986C32.0514 10.2207 31.886 10.4553 31.7794 10.69C31.6834 10.9247 31.6354 11.2447 31.6354 11.65V15.97H30.3234ZM41.2629 16.162C40.3669 16.162 39.6522 15.9593 39.1189 15.554C38.5855 15.1487 38.2495 14.6367 38.1109 14.018L39.3589 13.522C39.4762 13.97 39.6949 14.322 40.0149 14.578C40.3455 14.8233 40.7455 14.946 41.2149 14.946C41.7482 14.946 42.1642 14.8393 42.4629 14.626C42.7615 14.4127 42.9109 14.1353 42.9109 13.794C42.9109 13.4527 42.7722 13.202 42.4949 13.042C42.2282 12.882 41.8815 12.77 41.4549 12.706L40.5749 12.578C39.9349 12.482 39.4015 12.2527 38.9749 11.89C38.5589 11.5167 38.3509 10.9993 38.3509 10.338C38.3509 9.89 38.4735 9.50067 38.7189 9.17C38.9642 8.83933 39.2949 8.58333 39.7109 8.402C40.1375 8.22067 40.6122 8.13 41.1349 8.13C41.8709 8.13 42.4842 8.27933 42.9749 8.578C43.4762 8.87667 43.8282 9.314 44.0309 9.89L42.9109 10.45C42.7935 10.0553 42.5802 9.76733 42.2709 9.586C41.9615 9.40467 41.5829 9.314 41.1349 9.314C40.7082 9.314 40.3455 9.40467 40.0469 9.586C39.7482 9.76733 39.5989 10.0287 39.5989 10.37C39.5989 10.69 39.7215 10.93 39.9669 11.09C40.2229 11.2393 40.5802 11.3513 41.0389 11.426L41.9509 11.57C42.3562 11.634 42.7242 11.746 43.0549 11.906C43.3962 12.066 43.6682 12.2953 43.8709 12.594C44.0842 12.882 44.1909 13.2553 44.1909 13.714C44.1909 14.4607 43.9295 15.058 43.4069 15.506C42.8949 15.9433 42.1802 16.162 41.2629 16.162ZM48.2141 15.97C47.5635 15.97 47.0835 15.7833 46.7741 15.41C46.4755 15.0367 46.3261 14.5247 46.3261 13.874V9.506H44.8861V8.322H46.3261V6.21L47.6381 5.922V8.322H49.7981V9.506H47.6381V14.05C47.6381 14.274 47.7021 14.45 47.8301 14.578C47.9581 14.6953 48.1235 14.754 48.3261 14.754H49.9421L49.7501 15.97H48.2141ZM53.3156 16.162C52.569 16.162 51.961 15.9593 51.4916 15.554C51.0223 15.138 50.7876 14.578 50.7876 13.874C50.7876 13.2447 50.985 12.7273 51.3796 12.322C51.7743 11.906 52.361 11.6447 53.1396 11.538L55.0276 11.282C55.2623 11.25 55.4276 11.1753 55.5236 11.058C55.6196 10.9407 55.6676 10.786 55.6676 10.594C55.6676 10.1887 55.5076 9.87933 55.1876 9.666C54.8783 9.45267 54.489 9.346 54.0196 9.346C53.5503 9.346 53.1556 9.46333 52.8356 9.698C52.5156 9.93267 52.297 10.2633 52.1796 10.69L50.9796 10.354C51.1076 9.73533 51.433 9.21267 51.9556 8.786C52.489 8.34867 53.177 8.13 54.0196 8.13C54.969 8.13 55.6996 8.36467 56.2116 8.834C56.7236 9.30333 56.9796 9.986 56.9796 10.882V15.97H55.7156V14.466C55.5556 14.9887 55.2676 15.4047 54.8516 15.714C54.4356 16.0127 53.9236 16.162 53.3156 16.162ZM53.3956 14.946C53.8863 14.946 54.297 14.8393 54.6276 14.626C54.969 14.402 55.2303 14.114 55.4116 13.762C55.593 13.3993 55.6836 13.01 55.6836 12.594V12.146C55.577 12.2313 55.449 12.3007 55.2996 12.354C55.161 12.3967 54.985 12.4287 54.7716 12.45L53.3316 12.61C52.5103 12.706 52.0996 13.122 52.0996 13.858C52.0996 14.1887 52.217 14.4553 52.4516 14.658C52.6863 14.85 53.001 14.946 53.3956 14.946ZM61.8318 19.522C61.0638 19.522 60.4024 19.3407 59.8478 18.978C59.2931 18.626 58.9304 18.1087 58.7598 17.426L60.0078 16.994C60.2211 17.8687 60.8451 18.306 61.8798 18.306H62.4238C62.9678 18.306 63.3944 18.1407 63.7038 17.81C64.0131 17.4793 64.1678 16.9833 64.1678 16.322V14.69C63.9011 15.1273 63.5598 15.4527 63.1438 15.666C62.7384 15.8687 62.2691 15.97 61.7358 15.97C61.1171 15.97 60.5571 15.8313 60.0558 15.554C59.5651 15.266 59.1758 14.8447 58.8878 14.29C58.5998 13.7353 58.4558 13.0473 58.4558 12.226V11.874C58.4558 11.0527 58.5998 10.3647 58.8878 9.81C59.1758 9.25533 59.5651 8.83933 60.0558 8.562C60.5571 8.274 61.1171 8.13 61.7358 8.13C62.2691 8.13 62.7384 8.23667 63.1438 8.45C63.5598 8.65267 63.9011 8.97267 64.1678 9.41V8.322H65.4798V16.258C65.4798 17.218 65.2291 18.002 64.7278 18.61C64.2371 19.218 63.4744 19.522 62.4398 19.522H61.8318ZM61.9278 14.754C62.4931 14.754 63.0104 14.5193 63.4798 14.05C63.6931 13.8367 63.8584 13.6127 63.9758 13.378C64.1038 13.1433 64.1678 12.8607 64.1678 12.53V11.57C64.1678 11.2393 64.1038 10.9567 63.9758 10.722C63.8584 10.4873 63.6931 10.2633 63.4798 10.05C63.0104 9.58067 62.4931 9.346 61.9278 9.346C61.5438 9.346 61.1864 9.426 60.8558 9.586C60.5251 9.746 60.2584 10.0127 60.0558 10.386C59.8638 10.7487 59.7678 11.2553 59.7678 11.906V12.194C59.7678 12.834 59.8638 13.3407 60.0558 13.714C60.2584 14.0873 60.5251 14.354 60.8558 14.514C61.1864 14.674 61.5438 14.754 61.9278 14.754ZM67.5265 15.97V8.322H68.8385V9.346C69.0625 8.962 69.3292 8.66333 69.6385 8.45C69.9478 8.23667 70.3425 8.13 70.8225 8.13C71.3238 8.13 71.7452 8.29 72.0865 8.61C72.4385 8.93 72.6145 9.35667 72.6145 9.89V11.074H71.3025V10.146C71.3025 9.858 71.2225 9.64467 71.0625 9.506C70.9132 9.35667 70.7158 9.282 70.4705 9.282C70.2038 9.282 69.9745 9.35133 69.7825 9.49C69.6012 9.618 69.4412 9.77267 69.3025 9.954C69.0892 10.2313 68.9558 10.5033 68.9025 10.77C68.8598 11.0367 68.8385 11.3727 68.8385 11.778V15.97H67.5265ZM76.4094 16.162C75.6627 16.162 75.0547 15.9593 74.5854 15.554C74.116 15.138 73.8814 14.578 73.8814 13.874C73.8814 13.2447 74.0787 12.7273 74.4734 12.322C74.868 11.906 75.4547 11.6447 76.2334 11.538L78.1214 11.282C78.356 11.25 78.5214 11.1753 78.6174 11.058C78.7134 10.9407 78.7614 10.786 78.7614 10.594C78.7614 10.1887 78.6014 9.87933 78.2814 9.666C77.972 9.45267 77.5827 9.346 77.1134 9.346C76.644 9.346 76.2494 9.46333 75.9294 9.698C75.6094 9.93267 75.3907 10.2633 75.2734 10.69L74.0734 10.354C74.2014 9.73533 74.5267 9.21267 75.0494 8.786C75.5827 8.34867 76.2707 8.13 77.1134 8.13C78.0627 8.13 78.7934 8.36467 79.3054 8.834C79.8174 9.30333 80.0734 9.986 80.0734 10.882V15.97H78.8094V14.466C78.6494 14.9887 78.3614 15.4047 77.9454 15.714C77.5294 16.0127 77.0174 16.162 76.4094 16.162ZM76.4894 14.946C76.98 14.946 77.3907 14.8393 77.7214 14.626C78.0627 14.402 78.324 14.114 78.5054 13.762C78.6867 13.3993 78.7774 13.01 78.7774 12.594V12.146C78.6707 12.2313 78.5427 12.3007 78.3934 12.354C78.2547 12.3967 78.0787 12.4287 77.8654 12.45L76.4254 12.61C75.604 12.706 75.1934 13.122 75.1934 13.858C75.1934 14.1887 75.3107 14.4553 75.5454 14.658C75.78 14.85 76.0947 14.946 76.4894 14.946ZM82.089 15.97V8.322H83.401V9.378C83.6037 8.962 83.881 8.65267 84.233 8.45C84.585 8.23667 84.9743 8.13 85.401 8.13C85.913 8.13 86.3343 8.25267 86.665 8.498C86.9957 8.73267 87.225 9.04733 87.353 9.442C87.577 8.994 87.881 8.66333 88.265 8.45C88.649 8.23667 89.065 8.13 89.513 8.13C90.3023 8.13 90.8997 8.354 91.305 8.802C91.7103 9.23933 91.913 9.86867 91.913 10.69V15.97H90.601V10.738C90.601 10.2687 90.4837 9.922 90.249 9.698C90.0143 9.46333 89.6997 9.346 89.305 9.346C88.8463 9.346 88.4517 9.53267 88.121 9.906C88.0143 10.034 87.9077 10.2047 87.801 10.418C87.705 10.6207 87.657 10.8873 87.657 11.218V15.97H86.345V10.738C86.345 10.2687 86.2277 9.922 85.993 9.698C85.7583 9.46333 85.4437 9.346 85.049 9.346C84.5903 9.346 84.1957 9.53267 83.865 9.906C83.7583 10.034 83.6517 10.2047 83.545 10.418C83.449 10.6207 83.401 10.8873 83.401 11.218V15.97H82.089Z"/>
</mask>
<path d="M22.708 15.97V14.658H24.916V6.082H22.708V4.77H28.532V6.082H26.324V14.658H28.532V15.97H22.708ZM30.3234 15.97V8.322H31.6354V9.586C31.8167 9.11667 32.1154 8.75933 32.5314 8.514C32.958 8.258 33.4327 8.13 33.9554 8.13C34.7767 8.13 35.406 8.37 35.8434 8.85C36.2807 9.31933 36.4994 9.95933 36.4994 10.77V15.97H35.1874V10.882C35.1874 10.3807 35.0594 10.002 34.8034 9.746C34.5474 9.47933 34.1847 9.346 33.7154 9.346C33.4167 9.346 33.1447 9.41 32.8994 9.538C32.6647 9.65533 32.4567 9.80467 32.2754 9.986C32.0514 10.2207 31.886 10.4553 31.7794 10.69C31.6834 10.9247 31.6354 11.2447 31.6354 11.65V15.97H30.3234ZM41.2629 16.162C40.3669 16.162 39.6522 15.9593 39.1189 15.554C38.5855 15.1487 38.2495 14.6367 38.1109 14.018L39.3589 13.522C39.4762 13.97 39.6949 14.322 40.0149 14.578C40.3455 14.8233 40.7455 14.946 41.2149 14.946C41.7482 14.946 42.1642 14.8393 42.4629 14.626C42.7615 14.4127 42.9109 14.1353 42.9109 13.794C42.9109 13.4527 42.7722 13.202 42.4949 13.042C42.2282 12.882 41.8815 12.77 41.4549 12.706L40.5749 12.578C39.9349 12.482 39.4015 12.2527 38.9749 11.89C38.5589 11.5167 38.3509 10.9993 38.3509 10.338C38.3509 9.89 38.4735 9.50067 38.7189 9.17C38.9642 8.83933 39.2949 8.58333 39.7109 8.402C40.1375 8.22067 40.6122 8.13 41.1349 8.13C41.8709 8.13 42.4842 8.27933 42.9749 8.578C43.4762 8.87667 43.8282 9.314 44.0309 9.89L42.9109 10.45C42.7935 10.0553 42.5802 9.76733 42.2709 9.586C41.9615 9.40467 41.5829 9.314 41.1349 9.314C40.7082 9.314 40.3455 9.40467 40.0469 9.586C39.7482 9.76733 39.5989 10.0287 39.5989 10.37C39.5989 10.69 39.7215 10.93 39.9669 11.09C40.2229 11.2393 40.5802 11.3513 41.0389 11.426L41.9509 11.57C42.3562 11.634 42.7242 11.746 43.0549 11.906C43.3962 12.066 43.6682 12.2953 43.8709 12.594C44.0842 12.882 44.1909 13.2553 44.1909 13.714C44.1909 14.4607 43.9295 15.058 43.4069 15.506C42.8949 15.9433 42.1802 16.162 41.2629 16.162ZM48.2141 15.97C47.5635 15.97 47.0835 15.7833 46.7741 15.41C46.4755 15.0367 46.3261 14.5247 46.3261 13.874V9.506H44.8861V8.322H46.3261V6.21L47.6381 5.922V8.322H49.7981V9.506H47.6381V14.05C47.6381 14.274 47.7021 14.45 47.8301 14.578C47.9581 14.6953 48.1235 14.754 48.3261 14.754H49.9421L49.7501 15.97H48.2141ZM53.3156 16.162C52.569 16.162 51.961 15.9593 51.4916 15.554C51.0223 15.138 50.7876 14.578 50.7876 13.874C50.7876 13.2447 50.985 12.7273 51.3796 12.322C51.7743 11.906 52.361 11.6447 53.1396 11.538L55.0276 11.282C55.2623 11.25 55.4276 11.1753 55.5236 11.058C55.6196 10.9407 55.6676 10.786 55.6676 10.594C55.6676 10.1887 55.5076 9.87933 55.1876 9.666C54.8783 9.45267 54.489 9.346 54.0196 9.346C53.5503 9.346 53.1556 9.46333 52.8356 9.698C52.5156 9.93267 52.297 10.2633 52.1796 10.69L50.9796 10.354C51.1076 9.73533 51.433 9.21267 51.9556 8.786C52.489 8.34867 53.177 8.13 54.0196 8.13C54.969 8.13 55.6996 8.36467 56.2116 8.834C56.7236 9.30333 56.9796 9.986 56.9796 10.882V15.97H55.7156V14.466C55.5556 14.9887 55.2676 15.4047 54.8516 15.714C54.4356 16.0127 53.9236 16.162 53.3156 16.162ZM53.3956 14.946C53.8863 14.946 54.297 14.8393 54.6276 14.626C54.969 14.402 55.2303 14.114 55.4116 13.762C55.593 13.3993 55.6836 13.01 55.6836 12.594V12.146C55.577 12.2313 55.449 12.3007 55.2996 12.354C55.161 12.3967 54.985 12.4287 54.7716 12.45L53.3316 12.61C52.5103 12.706 52.0996 13.122 52.0996 13.858C52.0996 14.1887 52.217 14.4553 52.4516 14.658C52.6863 14.85 53.001 14.946 53.3956 14.946ZM61.8318 19.522C61.0638 19.522 60.4024 19.3407 59.8478 18.978C59.2931 18.626 58.9304 18.1087 58.7598 17.426L60.0078 16.994C60.2211 17.8687 60.8451 18.306 61.8798 18.306H62.4238C62.9678 18.306 63.3944 18.1407 63.7038 17.81C64.0131 17.4793 64.1678 16.9833 64.1678 16.322V14.69C63.9011 15.1273 63.5598 15.4527 63.1438 15.666C62.7384 15.8687 62.2691 15.97 61.7358 15.97C61.1171 15.97 60.5571 15.8313 60.0558 15.554C59.5651 15.266 59.1758 14.8447 58.8878 14.29C58.5998 13.7353 58.4558 13.0473 58.4558 12.226V11.874C58.4558 11.0527 58.5998 10.3647 58.8878 9.81C59.1758 9.25533 59.5651 8.83933 60.0558 8.562C60.5571 8.274 61.1171 8.13 61.7358 8.13C62.2691 8.13 62.7384 8.23667 63.1438 8.45C63.5598 8.65267 63.9011 8.97267 64.1678 9.41V8.322H65.4798V16.258C65.4798 17.218 65.2291 18.002 64.7278 18.61C64.2371 19.218 63.4744 19.522 62.4398 19.522H61.8318ZM61.9278 14.754C62.4931 14.754 63.0104 14.5193 63.4798 14.05C63.6931 13.8367 63.8584 13.6127 63.9758 13.378C64.1038 13.1433 64.1678 12.8607 64.1678 12.53V11.57C64.1678 11.2393 64.1038 10.9567 63.9758 10.722C63.8584 10.4873 63.6931 10.2633 63.4798 10.05C63.0104 9.58067 62.4931 9.346 61.9278 9.346C61.5438 9.346 61.1864 9.426 60.8558 9.586C60.5251 9.746 60.2584 10.0127 60.0558 10.386C59.8638 10.7487 59.7678 11.2553 59.7678 11.906V12.194C59.7678 12.834 59.8638 13.3407 60.0558 13.714C60.2584 14.0873 60.5251 14.354 60.8558 14.514C61.1864 14.674 61.5438 14.754 61.9278 14.754ZM67.5265 15.97V8.322H68.8385V9.346C69.0625 8.962 69.3292 8.66333 69.6385 8.45C69.9478 8.23667 70.3425 8.13 70.8225 8.13C71.3238 8.13 71.7452 8.29 72.0865 8.61C72.4385 8.93 72.6145 9.35667 72.6145 9.89V11.074H71.3025V10.146C71.3025 9.858 71.2225 9.64467 71.0625 9.506C70.9132 9.35667 70.7158 9.282 70.4705 9.282C70.2038 9.282 69.9745 9.35133 69.7825 9.49C69.6012 9.618 69.4412 9.77267 69.3025 9.954C69.0892 10.2313 68.9558 10.5033 68.9025 10.77C68.8598 11.0367 68.8385 11.3727 68.8385 11.778V15.97H67.5265ZM76.4094 16.162C75.6627 16.162 75.0547 15.9593 74.5854 15.554C74.116 15.138 73.8814 14.578 73.8814 13.874C73.8814 13.2447 74.0787 12.7273 74.4734 12.322C74.868 11.906 75.4547 11.6447 76.2334 11.538L78.1214 11.282C78.356 11.25 78.5214 11.1753 78.6174 11.058C78.7134 10.9407 78.7614 10.786 78.7614 10.594C78.7614 10.1887 78.6014 9.87933 78.2814 9.666C77.972 9.45267 77.5827 9.346 77.1134 9.346C76.644 9.346 76.2494 9.46333 75.9294 9.698C75.6094 9.93267 75.3907 10.2633 75.2734 10.69L74.0734 10.354C74.2014 9.73533 74.5267 9.21267 75.0494 8.786C75.5827 8.34867 76.2707 8.13 77.1134 8.13C78.0627 8.13 78.7934 8.36467 79.3054 8.834C79.8174 9.30333 80.0734 9.986 80.0734 10.882V15.97H78.8094V14.466C78.6494 14.9887 78.3614 15.4047 77.9454 15.714C77.5294 16.0127 77.0174 16.162 76.4094 16.162ZM76.4894 14.946C76.98 14.946 77.3907 14.8393 77.7214 14.626C78.0627 14.402 78.324 14.114 78.5054 13.762C78.6867 13.3993 78.7774 13.01 78.7774 12.594V12.146C78.6707 12.2313 78.5427 12.3007 78.3934 12.354C78.2547 12.3967 78.0787 12.4287 77.8654 12.45L76.4254 12.61C75.604 12.706 75.1934 13.122 75.1934 13.858C75.1934 14.1887 75.3107 14.4553 75.5454 14.658C75.78 14.85 76.0947 14.946 76.4894 14.946ZM82.089 15.97V8.322H83.401V9.378C83.6037 8.962 83.881 8.65267 84.233 8.45C84.585 8.23667 84.9743 8.13 85.401 8.13C85.913 8.13 86.3343 8.25267 86.665 8.498C86.9957 8.73267 87.225 9.04733 87.353 9.442C87.577 8.994 87.881 8.66333 88.265 8.45C88.649 8.23667 89.065 8.13 89.513 8.13C90.3023 8.13 90.8997 8.354 91.305 8.802C91.7103 9.23933 91.913 9.86867 91.913 10.69V15.97H90.601V10.738C90.601 10.2687 90.4837 9.922 90.249 9.698C90.0143 9.46333 89.6997 9.346 89.305 9.346C88.8463 9.346 88.4517 9.53267 88.121 9.906C88.0143 10.034 87.9077 10.2047 87.801 10.418C87.705 10.6207 87.657 10.8873 87.657 11.218V15.97H86.345V10.738C86.345 10.2687 86.2277 9.922 85.993 9.698C85.7583 9.46333 85.4437 9.346 85.049 9.346C84.5903 9.346 84.1957 9.53267 83.865 9.906C83.7583 10.034 83.6517 10.2047 83.545 10.418C83.449 10.6207 83.401 10.8873 83.401 11.218V15.97H82.089Z" fill="black"/>
<path d="M22.708 15.97H22.508V16.17H22.708V15.97ZM22.708 14.658V14.458H22.508V14.658H22.708ZM24.916 14.658V14.858H25.116V14.658H24.916ZM24.916 6.082H25.116V5.882H24.916V6.082ZM22.708 6.082H22.508V6.282H22.708V6.082ZM22.708 4.77V4.57H22.508V4.77H22.708ZM28.532 4.77H28.732V4.57H28.532V4.77ZM28.532 6.082V6.282H28.732V6.082H28.532ZM26.324 6.082V5.882H26.124V6.082H26.324ZM26.324 14.658H26.124V14.858H26.324V14.658ZM28.532 14.658H28.732V14.458H28.532V14.658ZM28.532 15.97V16.17H28.732V15.97H28.532ZM22.708 15.97H22.908V14.658H22.708H22.508V15.97H22.708ZM22.708 14.658V14.858H24.916V14.658V14.458H22.708V14.658ZM24.916 14.658H25.116V6.082H24.916H24.716V14.658H24.916ZM24.916 6.082V5.882H22.708V6.082V6.282H24.916V6.082ZM22.708 6.082H22.908V4.77H22.708H22.508V6.082H22.708ZM22.708 4.77V4.97H28.532V4.77V4.57H22.708V4.77ZM28.532 4.77H28.332V6.082H28.532H28.732V4.77H28.532ZM28.532 6.082V5.882H26.324V6.082V6.282H28.532V6.082ZM26.324 6.082H26.124V14.658H26.324H26.524V6.082H26.324ZM26.324 14.658V14.858H28.532V14.658V14.458H26.324V14.658ZM28.532 14.658H28.332V15.97H28.532H28.732V14.658H28.532ZM28.532 15.97V15.77H22.708V15.97V16.17H28.532V15.97ZM30.3234 15.97H30.1234V16.17H30.3234V15.97ZM30.3234 8.322V8.122H30.1234V8.322H30.3234ZM31.6354 8.322H31.8354V8.122H31.6354V8.322ZM31.6354 9.586H31.4354L31.8219 9.65808L31.6354 9.586ZM32.5314 8.514L32.633 8.68628L32.6343 8.6855L32.5314 8.514ZM35.8434 8.85L35.6955 8.98471L35.6971 8.98635L35.8434 8.85ZM36.4994 15.97V16.17H36.6994V15.97H36.4994ZM35.1874 15.97H34.9874V16.17H35.1874V15.97ZM34.8034 9.746L34.6591 9.88454L34.662 9.88742L34.8034 9.746ZM32.8994 9.538L32.9888 9.71691L32.9919 9.71532L32.8994 9.538ZM32.2754 9.986L32.1339 9.84454L32.1307 9.84791L32.2754 9.986ZM31.7794 10.69L31.5972 10.6072L31.5943 10.6143L31.7794 10.69ZM31.6354 15.97V16.17H31.8354V15.97H31.6354ZM30.3234 15.97H30.5234V8.322H30.3234H30.1234V15.97H30.3234ZM30.3234 8.322V8.522H31.6354V8.322V8.122H30.3234V8.322ZM31.6354 8.322H31.4354V9.586H31.6354H31.8354V8.322H31.6354ZM31.6354 9.586L31.8219 9.65808C31.9878 9.22886 32.2575 8.90772 32.633 8.68627L32.5314 8.514L32.4298 8.34173C31.9733 8.61095 31.6457 9.00447 31.4488 9.51392L31.6354 9.586ZM32.5314 8.514L32.6343 8.6855C33.0283 8.44911 33.4671 8.33 33.9554 8.33V8.13V7.93C33.3984 7.93 32.8878 8.06689 32.4285 8.3425L32.5314 8.514ZM33.9554 8.13V8.33C34.7364 8.33 35.3056 8.55676 35.6955 8.9847L35.8434 8.85L35.9912 8.7153C35.5064 8.18324 34.8171 7.93 33.9554 7.93V8.13ZM35.8434 8.85L35.6971 8.98635C36.0915 9.40961 36.2994 9.99604 36.2994 10.77H36.4994H36.6994C36.6994 9.92263 36.47 9.22906 35.9897 8.71366L35.8434 8.85ZM36.4994 10.77H36.2994V15.97H36.4994H36.6994V10.77H36.4994ZM36.4994 15.97V15.77H35.1874V15.97V16.17H36.4994V15.97ZM35.1874 15.97H35.3874V10.882H35.1874H34.9874V15.97H35.1874ZM35.1874 10.882H35.3874C35.3874 10.3484 35.2508 9.9106 34.9448 9.60458L34.8034 9.746L34.662 9.88742C34.8679 10.0934 34.9874 10.4129 34.9874 10.882H35.1874ZM34.8034 9.746L34.9477 9.60749C34.6444 9.29159 34.2236 9.146 33.7154 9.146V9.346V9.546C34.1458 9.546 34.4504 9.66707 34.6591 9.88451L34.8034 9.746ZM33.7154 9.346V9.146C33.3871 9.146 33.083 9.21662 32.8069 9.36068L32.8994 9.538L32.9919 9.71532C33.2064 9.60338 33.4463 9.546 33.7154 9.546V9.346ZM32.8994 9.538L32.8099 9.35912C32.5565 9.48584 32.3308 9.64769 32.134 9.84458L32.2754 9.986L32.4168 10.1274C32.5826 9.96164 32.7729 9.82483 32.9888 9.71689L32.8994 9.538ZM32.2754 9.986L32.1307 9.84791C31.8951 10.0948 31.7153 10.3477 31.5973 10.6072L31.7794 10.69L31.9615 10.7728C32.0568 10.563 32.2077 10.3466 32.42 10.1241L32.2754 9.986ZM31.7794 10.69L31.5943 10.6143C31.4843 10.883 31.4354 11.2324 31.4354 11.65H31.6354H31.8354C31.8354 11.2569 31.8824 10.9663 31.9645 10.7657L31.7794 10.69ZM31.6354 11.65H31.4354V15.97H31.6354H31.8354V11.65H31.6354ZM31.6354 15.97V15.77H30.3234V15.97V16.17H31.6354V15.97ZM39.1189 15.554L38.9979 15.7132V15.7132L39.1189 15.554ZM38.1109 14.018L38.037 13.8321L37.8784 13.8952L37.9157 14.0617L38.1109 14.018ZM39.3589 13.522L39.5524 13.4713L39.4951 13.2527L39.285 13.3361L39.3589 13.522ZM40.0149 14.578L39.8899 14.7343L39.8957 14.7386L40.0149 14.578ZM42.4629 14.626L42.3466 14.4633V14.4633L42.4629 14.626ZM42.4949 13.042L42.392 13.2135L42.3949 13.2152L42.4949 13.042ZM41.4549 12.706L41.4845 12.5082L41.4837 12.5081L41.4549 12.706ZM40.5749 12.578L40.5452 12.7758L40.5461 12.7759L40.5749 12.578ZM38.9749 11.89L38.8412 12.0389L38.8453 12.0424L38.9749 11.89ZM38.7189 9.17L38.8795 9.28917V9.28917L38.7189 9.17ZM39.7109 8.402L39.6326 8.21793L39.631 8.21866L39.7109 8.402ZM42.9749 8.578L42.8709 8.74885L42.8725 8.74982L42.9749 8.578ZM44.0309 9.89L44.1203 10.0689L44.2781 9.99001L44.2195 9.82362L44.0309 9.89ZM42.9109 10.45L42.7192 10.507L42.7871 10.7355L43.0003 10.6289L42.9109 10.45ZM42.2709 9.586L42.372 9.41346H42.372L42.2709 9.586ZM40.0469 9.586L40.1507 9.75696V9.75696L40.0469 9.586ZM39.9669 11.09L39.8575 11.2577L39.8661 11.2628L39.9669 11.09ZM41.0389 11.426L41.0067 11.6234L41.0077 11.6236L41.0389 11.426ZM41.9509 11.57L41.9197 11.7676V11.7676L41.9509 11.57ZM43.0549 11.906L42.9678 12.086L42.97 12.0871L43.0549 11.906ZM43.8709 12.594L43.7052 12.7064L43.7102 12.713L43.8709 12.594ZM43.4069 15.506L43.5368 15.6581L43.537 15.6579L43.4069 15.506ZM41.2629 16.162V15.962C40.3959 15.962 39.7283 15.766 39.2399 15.3948L39.1189 15.554L38.9979 15.7132C39.5761 16.1527 40.3378 16.362 41.2629 16.362V16.162ZM39.1189 15.554L39.2399 15.3948C38.7418 15.0162 38.4338 14.5441 38.306 13.9743L38.1109 14.018L37.9157 14.0617C38.0653 14.7292 38.4293 15.2811 38.9979 15.7132L39.1189 15.554ZM38.1109 14.018L38.1847 14.2039L39.4327 13.7079L39.3589 13.522L39.285 13.3361L38.037 13.8321L38.1109 14.018ZM39.3589 13.522L39.1654 13.5727C39.2922 14.0566 39.532 14.4479 39.8899 14.7342L40.0149 14.578L40.1398 14.4218C39.8577 14.1961 39.6603 13.8834 39.5524 13.4713L39.3589 13.522ZM40.0149 14.578L39.8957 14.7386C40.2656 15.013 40.7089 15.146 41.2149 15.146V14.946V14.746C40.7822 14.746 40.4255 14.6336 40.134 14.4174L40.0149 14.578ZM41.2149 14.946V15.146C41.7718 15.146 42.2343 15.035 42.5791 14.7887L42.4629 14.626L42.3466 14.4633C42.0941 14.6436 41.7246 14.746 41.2149 14.746V14.946ZM42.4629 14.626L42.5791 14.7887C42.9257 14.5412 43.1109 14.2054 43.1109 13.794H42.9109H42.7109C42.7109 14.0652 42.5974 14.2842 42.3466 14.4633L42.4629 14.626ZM42.9109 13.794H43.1109C43.1109 13.387 42.9389 13.0673 42.5948 12.8688L42.4949 13.042L42.3949 13.2152C42.6055 13.3367 42.7109 13.5184 42.7109 13.794H42.9109ZM42.4949 13.042L42.5978 12.8705C42.3018 12.6929 41.9278 12.5747 41.4845 12.5082L41.4549 12.706L41.4252 12.9038C41.8353 12.9653 42.1547 13.0711 42.392 13.2135L42.4949 13.042ZM41.4549 12.706L41.4837 12.5081L40.6037 12.3801L40.5749 12.578L40.5461 12.7759L41.4261 12.9039L41.4549 12.706ZM40.5749 12.578L40.6045 12.3802C39.9956 12.2889 39.4985 12.0726 39.1044 11.7376L38.9749 11.89L38.8453 12.0424C39.3046 12.4328 39.8742 12.6751 40.5452 12.7758L40.5749 12.578ZM38.9749 11.89L39.1085 11.7412C38.7425 11.4127 38.5509 10.9539 38.5509 10.338H38.3509H38.1509C38.1509 11.0447 38.3752 11.6206 38.8413 12.0388L38.9749 11.89ZM38.3509 10.338H38.5509C38.5509 9.92892 38.662 9.58229 38.8795 9.28917L38.7189 9.17L38.5583 9.05083C38.2851 9.41904 38.1509 9.85108 38.1509 10.338H38.3509ZM38.7189 9.17L38.8795 9.28917C39.1019 8.98938 39.4035 8.75417 39.7908 8.58534L39.7109 8.402L39.631 8.21866C39.1863 8.4125 38.8265 8.68929 38.5583 9.05083L38.7189 9.17ZM39.7109 8.402L39.7891 8.58607C40.1881 8.41651 40.6357 8.33 41.1349 8.33V8.13V7.93C40.5887 7.93 40.087 8.02483 39.6327 8.21793L39.7109 8.402ZM41.1349 8.13V8.33C41.8444 8.33 42.4192 8.47392 42.8709 8.74884L42.9749 8.578L43.0789 8.40716C42.5492 8.08475 41.8974 7.93 41.1349 7.93V8.13ZM42.9749 8.578L42.8725 8.74982C43.3317 9.02335 43.6543 9.42233 43.8422 9.95638L44.0309 9.89L44.2195 9.82362C44.0021 9.20568 43.6208 8.72999 43.0772 8.40618L42.9749 8.578ZM44.0309 9.89L43.9414 9.71112L42.8214 10.2711L42.9109 10.45L43.0003 10.6289L44.1203 10.0689L44.0309 9.89ZM42.9109 10.45L43.1026 10.393C42.9731 9.95748 42.7316 9.62425 42.372 9.41346L42.2709 9.586L42.1697 9.75854C42.4288 9.91042 42.614 10.1532 42.7192 10.507L42.9109 10.45ZM42.2709 9.586L42.372 9.41346C42.0252 9.21017 41.6097 9.114 41.1349 9.114V9.314V9.514C41.5561 9.514 41.8979 9.59916 42.1697 9.75854L42.2709 9.586ZM41.1349 9.314V9.114C40.6797 9.114 40.2793 9.21091 39.9431 9.41504L40.0469 9.586L40.1507 9.75696C40.4118 9.59842 40.7367 9.514 41.1349 9.514V9.314ZM40.0469 9.586L39.9431 9.41504C39.5864 9.63159 39.3989 9.95679 39.3989 10.37H39.5989H39.7989C39.7989 10.1005 39.91 9.90308 40.1507 9.75696L40.0469 9.586ZM39.5989 10.37H39.3989C39.3989 10.7502 39.5497 11.0567 39.8576 11.2575L39.9669 11.09L40.0761 10.9225C39.8934 10.8033 39.7989 10.6298 39.7989 10.37H39.5989ZM39.9669 11.09L39.8661 11.2628C40.1518 11.4294 40.5361 11.5468 41.0067 11.6234L41.0389 11.426L41.071 11.2286C40.6244 11.1559 40.2939 11.0492 40.0677 10.9172L39.9669 11.09ZM41.0389 11.426L41.0077 11.6236L41.9197 11.7676L41.9509 11.57L41.9821 11.3724L41.0701 11.2284L41.0389 11.426ZM41.9509 11.57L41.9197 11.7676C42.3079 11.8288 42.6567 11.9355 42.9678 12.086L43.0549 11.906L43.142 11.726C42.7917 11.5565 42.4046 11.4392 41.9821 11.3724L41.9509 11.57ZM43.0549 11.906L42.97 12.0871C43.2803 12.2325 43.5238 12.4387 43.7054 12.7063L43.8709 12.594L44.0364 12.4817C43.8126 12.1519 43.5122 11.8995 43.1398 11.7249L43.0549 11.906ZM43.8709 12.594L43.7102 12.713C43.8916 12.958 43.9909 13.2861 43.9909 13.714H44.1909H44.3909C44.3909 13.2245 44.2768 12.806 44.0316 12.475L43.8709 12.594ZM44.1909 13.714H43.9909C43.9909 14.4079 43.751 14.9476 43.2767 15.3541L43.4069 15.506L43.537 15.6579C44.1081 15.1684 44.3909 14.5135 44.3909 13.714H44.1909ZM43.4069 15.506L43.277 15.3539C42.8125 15.7507 42.1499 15.962 41.2629 15.962V16.162V16.362C42.2105 16.362 42.9773 16.136 43.5368 15.6581L43.4069 15.506ZM46.7741 15.41L46.6179 15.535L46.6201 15.5376L46.7741 15.41ZM46.3261 9.506H46.5261V9.306H46.3261V9.506ZM44.8861 9.506H44.6861V9.706H44.8861V9.506ZM44.8861 8.322V8.122H44.6861V8.322H44.8861ZM46.3261 8.322V8.522H46.5261V8.322H46.3261ZM46.3261 6.21L46.2832 6.01465L46.1261 6.04914V6.21H46.3261ZM47.6381 5.922H47.8381V5.67334L47.5952 5.72665L47.6381 5.922ZM47.6381 8.322H47.4381V8.522H47.6381V8.322ZM49.7981 8.322H49.9981V8.122H49.7981V8.322ZM49.7981 9.506V9.706H49.9981V9.506H49.7981ZM47.6381 9.506V9.306H47.4381V9.506H47.6381ZM47.8301 14.578L47.6886 14.7196L47.695 14.7254L47.8301 14.578ZM49.9421 14.754L50.1397 14.7852L50.1762 14.554H49.9421V14.754ZM49.7501 15.97V16.17H49.921L49.9477 16.0012L49.7501 15.97ZM48.2141 15.97V15.77C47.6014 15.77 47.1875 15.5955 46.9281 15.2824L46.7741 15.41L46.6201 15.5376C46.9794 15.9712 47.5256 16.17 48.2141 16.17V15.97ZM46.7741 15.41L46.9303 15.2851C46.6687 14.9581 46.5261 14.4955 46.5261 13.874H46.3261H46.1261C46.1261 14.5538 46.2822 15.1152 46.618 15.5349L46.7741 15.41ZM46.3261 13.874H46.5261V9.506H46.3261H46.1261V13.874H46.3261ZM46.3261 9.506V9.306H44.8861V9.506V9.706H46.3261V9.506ZM44.8861 9.506H45.0861V8.322H44.8861H44.6861V9.506H44.8861ZM44.8861 8.322V8.522H46.3261V8.322V8.122H44.8861V8.322ZM46.3261 8.322H46.5261V6.21H46.3261H46.1261V8.322H46.3261ZM46.3261 6.21L46.369 6.40535L47.681 6.11735L47.6381 5.922L47.5952 5.72665L46.2832 6.01465L46.3261 6.21ZM47.6381 5.922H47.4381V8.322H47.6381H47.8381V5.922H47.6381ZM47.6381 8.322V8.522H49.7981V8.322V8.122H47.6381V8.322ZM49.7981 8.322H49.5981V9.506H49.7981H49.9981V8.322H49.7981ZM49.7981 9.506V9.306H47.6381V9.506V9.706H49.7981V9.506ZM47.6381 9.506H47.4381V14.05H47.6381H47.8381V9.506H47.6381ZM47.6381 14.05H47.4381C47.4381 14.3137 47.5147 14.5454 47.6887 14.7194L47.8301 14.578L47.9715 14.4366C47.8895 14.3546 47.8381 14.2343 47.8381 14.05H47.6381ZM47.8301 14.578L47.695 14.7254C47.8659 14.8822 48.0823 14.954 48.3261 14.954V14.754V14.554C48.1646 14.554 48.0503 14.5085 47.9653 14.4306L47.8301 14.578ZM48.3261 14.754V14.954H49.9421V14.754V14.554H48.3261V14.754ZM49.9421 14.754L49.7446 14.7228L49.5526 15.9388L49.7501 15.97L49.9477 16.0012L50.1397 14.7852L49.9421 14.754ZM49.7501 15.97V15.77H48.2141V15.97V16.17H49.7501V15.97ZM51.4916 15.554L51.359 15.7037L51.3609 15.7054L51.4916 15.554ZM51.3796 12.322L51.5229 12.4615L51.5247 12.4597L51.3796 12.322ZM53.1396 11.538L53.1128 11.3398L53.1125 11.3399L53.1396 11.538ZM55.0276 11.282L55.0545 11.4802L55.0546 11.4802L55.0276 11.282ZM55.1876 9.666L55.0741 9.83066L55.0767 9.83241L55.1876 9.666ZM52.1796 10.69L52.1257 10.8826L52.3192 10.9368L52.3725 10.743L52.1796 10.69ZM50.9796 10.354L50.7838 10.3135L50.746 10.4963L50.9257 10.5466L50.9796 10.354ZM51.9556 8.786L52.0821 8.94093L52.0824 8.94065L51.9556 8.786ZM56.2116 8.834L56.3468 8.68657V8.68657L56.2116 8.834ZM56.9796 15.97V16.17H57.1796V15.97H56.9796ZM55.7156 15.97H55.5156V16.17H55.7156V15.97ZM55.7156 14.466H55.9156L55.5244 14.4075L55.7156 14.466ZM54.8516 15.714L54.9683 15.8765L54.971 15.8745L54.8516 15.714ZM54.6276 14.626L54.7361 14.7941L54.7374 14.7932L54.6276 14.626ZM55.4116 13.762L55.5894 13.8536L55.5905 13.8514L55.4116 13.762ZM55.6836 12.146H55.8836V11.7299L55.5587 11.9898L55.6836 12.146ZM55.2996 12.354L55.3585 12.5453L55.3669 12.5423L55.2996 12.354ZM54.7716 12.45L54.7517 12.251L54.7495 12.2512L54.7716 12.45ZM53.3316 12.61L53.3095 12.4112L53.3084 12.4114L53.3316 12.61ZM52.4516 14.658L52.3209 14.8094L52.325 14.8128L52.4516 14.658ZM53.3156 16.162V15.962C52.6067 15.962 52.0483 15.7705 51.6224 15.4026L51.4916 15.554L51.3609 15.7054C51.8736 16.1482 52.5312 16.362 53.3156 16.362V16.162ZM51.4916 15.554L51.6243 15.4043C51.2033 15.0312 50.9876 14.5286 50.9876 13.874H50.7876H50.5876C50.5876 14.6274 50.8413 15.2448 51.359 15.7037L51.4916 15.554ZM50.7876 13.874H50.9876C50.9876 13.2904 51.1688 12.8252 51.5229 12.4615L51.3796 12.322L51.2363 12.1825C50.8011 12.6295 50.5876 13.1989 50.5876 13.874H50.7876ZM51.3796 12.322L51.5247 12.4597C51.8783 12.087 52.4166 11.8389 53.1668 11.7362L53.1396 11.538L53.1125 11.3399C52.3053 11.4504 51.6703 11.725 51.2345 12.1843L51.3796 12.322ZM53.1396 11.538L53.1665 11.7362L55.0545 11.4802L55.0276 11.282L55.0008 11.0838L53.1128 11.3398L53.1396 11.538ZM55.0276 11.282L55.0546 11.4802C55.3123 11.445 55.5365 11.3581 55.6784 11.1846L55.5236 11.058L55.3688 10.9314C55.3187 10.9926 55.2123 11.055 55.0006 11.0838L55.0276 11.282ZM55.5236 11.058L55.6784 11.1846C55.8107 11.0229 55.8676 10.8196 55.8676 10.594H55.6676H55.4676C55.4676 10.7524 55.4285 10.8584 55.3688 10.9314L55.5236 11.058ZM55.6676 10.594H55.8676C55.8676 10.1261 55.6777 9.75234 55.2986 9.49959L55.1876 9.666L55.0767 9.83241C55.3376 10.0063 55.4676 10.2512 55.4676 10.594H55.6676ZM55.1876 9.666L55.3012 9.50136C54.951 9.25984 54.5194 9.146 54.0196 9.146V9.346V9.546C54.4586 9.546 54.8056 9.6455 55.0741 9.83064L55.1876 9.666ZM54.0196 9.346V9.146C53.5158 9.146 53.0776 9.27254 52.7174 9.53672L52.8356 9.698L52.9539 9.85928C53.2337 9.65413 53.5848 9.546 54.0196 9.546V9.346ZM52.8356 9.698L52.7174 9.53672C52.3568 9.80111 52.1146 10.1721 51.9868 10.637L52.1796 10.69L52.3725 10.743C52.4793 10.3545 52.6744 10.0642 52.9539 9.85928L52.8356 9.698ZM52.1796 10.69L52.2336 10.4974L51.0336 10.1614L50.9796 10.354L50.9257 10.5466L52.1257 10.8826L52.1796 10.69ZM50.9796 10.354L51.1755 10.3945C51.2935 9.82401 51.5924 9.34068 52.0821 8.94093L51.9556 8.786L51.8292 8.63107C51.2735 9.08465 50.9217 9.64666 50.7838 10.3135L50.9796 10.354ZM51.9556 8.786L52.0824 8.94065C52.5726 8.53873 53.2126 8.33 54.0196 8.33V8.13V7.93C53.1413 7.93 52.4053 8.15861 51.8288 8.63135L51.9556 8.786ZM54.0196 8.13V8.33C54.9375 8.33 55.6131 8.55664 56.0765 8.98143L56.2116 8.834L56.3468 8.68657C55.7862 8.17269 55.0005 7.93 54.0196 7.93V8.13ZM56.2116 8.834L56.0765 8.98143C56.536 9.40263 56.7796 10.0248 56.7796 10.882H56.9796H57.1796C57.1796 9.94717 56.9113 9.20404 56.3468 8.68657L56.2116 8.834ZM56.9796 10.882H56.7796V15.97H56.9796H57.1796V10.882H56.9796ZM56.9796 15.97V15.77H55.7156V15.97V16.17H56.9796V15.97ZM55.7156 15.97H55.9156V14.466H55.7156H55.5156V15.97H55.7156ZM55.7156 14.466L55.5244 14.4075C55.3761 14.8917 55.1121 15.2711 54.7323 15.5535L54.8516 15.714L54.971 15.8745C55.4231 15.5383 55.7351 15.0856 55.9069 14.5245L55.7156 14.466ZM54.8516 15.714L54.735 15.5515C54.359 15.8215 53.8898 15.962 53.3156 15.962V16.162V16.362C53.9574 16.362 54.5123 16.2038 54.9683 15.8765L54.8516 15.714ZM53.3956 14.946V15.146C53.9153 15.146 54.3659 15.0329 54.7361 14.7941L54.6276 14.626L54.5192 14.4579C54.228 14.6458 53.8573 14.746 53.3956 14.746V14.946ZM54.6276 14.626L54.7374 14.7932C55.1066 14.5509 55.3918 14.2372 55.5894 13.8536L55.4116 13.762L55.2338 13.6704C55.0688 13.9908 54.8313 14.2531 54.5179 14.4588L54.6276 14.626ZM55.4116 13.762L55.5905 13.8514C55.7861 13.4603 55.8836 13.0402 55.8836 12.594H55.6836H55.4836C55.4836 12.9798 55.3998 13.3384 55.2327 13.6726L55.4116 13.762ZM55.6836 12.594H55.8836V12.146H55.6836H55.4836V12.594H55.6836ZM55.6836 12.146L55.5587 11.9898C55.4719 12.0593 55.3641 12.1186 55.2324 12.1657L55.2996 12.354L55.3669 12.5423C55.5338 12.4827 55.6821 12.4034 55.8086 12.3022L55.6836 12.146ZM55.2996 12.354L55.2408 12.1628C55.1193 12.2002 54.9575 12.2304 54.7517 12.251L54.7716 12.45L54.7915 12.649C55.0124 12.6269 55.2026 12.5931 55.3584 12.5452L55.2996 12.354ZM54.7716 12.45L54.7495 12.2512L53.3095 12.4112L53.3316 12.61L53.3537 12.8088L54.7937 12.6488L54.7716 12.45ZM53.3316 12.61L53.3084 12.4114C52.8709 12.4625 52.5135 12.6021 52.2653 12.8535C52.014 13.108 51.8996 13.4517 51.8996 13.858H52.0996H52.2996C52.2996 13.5283 52.3906 13.296 52.55 13.1345C52.7124 12.9699 52.971 12.8535 53.3548 12.8086L53.3316 12.61ZM52.0996 13.858H51.8996C51.8996 14.2424 52.039 14.5659 52.3209 14.8094L52.4516 14.658L52.5824 14.5066C52.3949 14.3447 52.2996 14.1349 52.2996 13.858H52.0996ZM52.4516 14.658L52.325 14.8128C52.6049 15.0419 52.9689 15.146 53.3956 15.146V14.946V14.746C53.033 14.746 52.7676 14.6581 52.5783 14.5032L52.4516 14.658ZM59.8478 18.978L59.9572 18.8106L59.9549 18.8091L59.8478 18.978ZM58.7598 17.426L58.6943 17.237L58.5213 17.2969L58.5657 17.4745L58.7598 17.426ZM60.0078 16.994L60.2021 16.9466L60.15 16.7331L59.9423 16.805L60.0078 16.994ZM63.7038 17.81L63.5577 17.6734V17.6734L63.7038 17.81ZM64.1678 14.69H64.3678V13.9778L63.997 14.5859L64.1678 14.69ZM63.1438 15.666L63.2332 15.8449L63.235 15.844L63.1438 15.666ZM60.0558 15.554L59.9545 15.7265L59.9589 15.729L60.0558 15.554ZM58.8878 14.29L59.0653 14.1978V14.1978L58.8878 14.29ZM58.8878 9.81L58.7103 9.71784V9.71784L58.8878 9.81ZM60.0558 8.562L60.1542 8.73612L60.1554 8.73542L60.0558 8.562ZM63.1438 8.45L63.0506 8.62707L63.0562 8.6298L63.1438 8.45ZM64.1678 9.41L63.997 9.51412L64.3678 10.1222V9.41H64.1678ZM64.1678 8.322V8.122H63.9678V8.322H64.1678ZM65.4798 8.322H65.6798V8.122H65.4798V8.322ZM64.7278 18.61L64.5734 18.4828L64.5721 18.4844L64.7278 18.61ZM63.4798 14.05L63.3383 13.9086H63.3383L63.4798 14.05ZM63.9758 13.378L63.8001 13.2822L63.7969 13.2886L63.9758 13.378ZM63.9758 10.722L63.7968 10.8115L63.8002 10.8178L63.9758 10.722ZM63.4798 10.05L63.3383 10.1914H63.3383L63.4798 10.05ZM60.8558 9.586L60.7686 9.40597V9.40597L60.8558 9.586ZM60.0558 10.386L59.88 10.2906L59.879 10.2924L60.0558 10.386ZM60.0558 13.714L59.8778 13.8055L59.88 13.8094L60.0558 13.714ZM60.8558 14.514L60.7686 14.694V14.694L60.8558 14.514ZM61.8318 19.522V19.322C61.0963 19.322 60.4744 19.1488 59.9572 18.8106L59.8478 18.978L59.7383 19.1454C60.3304 19.5326 61.0312 19.722 61.8318 19.722V19.522ZM59.8478 18.978L59.9549 18.8091C59.4468 18.4867 59.113 18.0143 58.9538 17.3775L58.7598 17.426L58.5657 17.4745C58.7479 18.2031 59.1393 18.7653 59.7406 19.1469L59.8478 18.978ZM58.7598 17.426L58.8252 17.615L60.0732 17.183L60.0078 16.994L59.9423 16.805L58.6943 17.237L58.7598 17.426ZM60.0078 16.994L59.8134 17.0414C59.9294 17.5169 60.1622 17.8903 60.521 18.1418C60.8767 18.3911 61.3357 18.506 61.8798 18.506V18.306V18.106C61.3891 18.106 61.0188 18.0022 60.7505 17.8142C60.4853 17.6283 60.2994 17.3458 60.2021 16.9466L60.0078 16.994ZM61.8798 18.306V18.506H62.4238V18.306V18.106H61.8798V18.306ZM62.4238 18.306V18.506C63.0111 18.506 63.4951 18.3258 63.8498 17.9466L63.7038 17.81L63.5577 17.6734C63.2937 17.9556 62.9245 18.106 62.4238 18.106V18.306ZM63.7038 17.81L63.8498 17.9466C64.2069 17.5649 64.3678 17.011 64.3678 16.322H64.1678H63.9678C63.9678 16.9557 63.8193 17.3937 63.5577 17.6734L63.7038 17.81ZM64.1678 16.322H64.3678V14.69H64.1678H63.9678V16.322H64.1678ZM64.1678 14.69L63.997 14.5859C63.7476 14.9949 63.4326 15.2931 63.0525 15.488L63.1438 15.666L63.235 15.844C63.6869 15.6122 64.0546 15.2598 64.3385 14.7941L64.1678 14.69ZM63.1438 15.666L63.0543 15.4871C62.6813 15.6736 62.2435 15.77 61.7358 15.77V15.97V16.17C62.2947 16.17 62.7956 16.0637 63.2332 15.8449L63.1438 15.666ZM61.7358 15.97V15.77C61.1482 15.77 60.6219 15.6386 60.1526 15.379L60.0558 15.554L59.9589 15.729C60.4922 16.024 61.086 16.17 61.7358 16.17V15.97ZM60.0558 15.554L60.157 15.3815C59.702 15.1144 59.3377 14.7225 59.0653 14.1978L58.8878 14.29L58.7103 14.3822C59.0138 14.9668 59.4282 15.4176 59.9545 15.7265L60.0558 15.554ZM58.8878 14.29L59.0653 14.1978C58.7959 13.6792 58.6558 13.025 58.6558 12.226H58.4558H58.2558C58.2558 13.0697 58.4036 13.7915 58.7103 14.3822L58.8878 14.29ZM58.4558 12.226H58.6558V11.874H58.4558H58.2558V12.226H58.4558ZM58.4558 11.874H58.6558C58.6558 11.075 58.7959 10.4208 59.0653 9.90216L58.8878 9.81L58.7103 9.71784C58.4036 10.3085 58.2558 11.0303 58.2558 11.874H58.4558ZM58.8878 9.81L59.0653 9.90216C59.3374 9.37802 59.7009 8.99233 60.1542 8.73611L60.0558 8.562L59.9573 8.38789C59.4293 8.68634 59.0141 9.13265 58.7103 9.71784L58.8878 9.81ZM60.0558 8.562L60.1554 8.73542C60.6243 8.46606 61.1495 8.33 61.7358 8.33V8.13V7.93C61.0847 7.93 60.4899 8.08194 59.9561 8.38858L60.0558 8.562ZM61.7358 8.13V8.33C62.242 8.33 62.6784 8.43108 63.0506 8.62698L63.1438 8.45L63.2369 8.27302C62.7985 8.04226 62.2962 7.93 61.7358 7.93V8.13ZM63.1438 8.45L63.0562 8.6298C63.4342 8.81395 63.748 9.10583 63.997 9.51412L64.1678 9.41L64.3385 9.30588C64.0541 8.8395 63.6854 8.49139 63.2313 8.2702L63.1438 8.45ZM64.1678 9.41H64.3678V8.322H64.1678H63.9678V9.41H64.1678ZM64.1678 8.322V8.522H65.4798V8.322V8.122H64.1678V8.322ZM65.4798 8.322H65.2798V16.258H65.4798H65.6798V8.322H65.4798ZM65.4798 16.258H65.2798C65.2798 17.1821 65.0392 17.9179 64.5734 18.4828L64.7278 18.61L64.8821 18.7372C65.419 18.0861 65.6798 17.2539 65.6798 16.258H65.4798ZM64.7278 18.61L64.5721 18.4844C64.1309 19.0311 63.435 19.322 62.4398 19.322V19.522V19.722C63.5138 19.722 64.3433 19.4049 64.8834 18.7356L64.7278 18.61ZM62.4398 19.522V19.322H61.8318V19.522V19.722H62.4398V19.522ZM61.9278 14.754V14.954C62.5553 14.954 63.1214 14.6912 63.6212 14.1914L63.4798 14.05L63.3383 13.9086C62.8995 14.3474 62.4309 14.554 61.9278 14.554V14.754ZM63.4798 14.05L63.6212 14.1914C63.8475 13.9651 64.0264 13.724 64.1546 13.4674L63.9758 13.378L63.7969 13.2886C63.6905 13.5014 63.5387 13.7082 63.3383 13.9086L63.4798 14.05ZM63.9758 13.378L64.1513 13.4738C64.2987 13.2035 64.3678 12.8863 64.3678 12.53H64.1678H63.9678C63.9678 12.835 63.9088 13.0831 63.8002 13.2822L63.9758 13.378ZM64.1678 12.53H64.3678V11.57H64.1678H63.9678V12.53H64.1678ZM64.1678 11.57H64.3678C64.3678 11.2137 64.2987 10.8965 64.1513 10.6262L63.9758 10.722L63.8002 10.8178C63.9088 11.0169 63.9678 11.265 63.9678 11.57H64.1678ZM63.9758 10.722L64.1546 10.6326C64.0264 10.376 63.8475 10.1349 63.6212 9.90858L63.4798 10.05L63.3383 10.1914C63.5387 10.3918 63.6905 10.5986 63.7969 10.8114L63.9758 10.722ZM63.4798 10.05L63.6212 9.90858C63.1214 9.40877 62.5553 9.146 61.9278 9.146V9.346V9.546C62.4309 9.546 62.8995 9.75256 63.3383 10.1914L63.4798 10.05ZM61.9278 9.346V9.146C61.515 9.146 61.1277 9.23223 60.7686 9.40597L60.8558 9.586L60.9429 9.76603C61.2451 9.61977 61.5725 9.546 61.9278 9.546V9.346ZM60.8558 9.586L60.7686 9.40597C60.3946 9.58695 60.0994 9.88642 59.88 10.2906L60.0558 10.386L60.2315 10.4814C60.4175 10.1389 60.6555 9.90506 60.9429 9.76603L60.8558 9.586ZM60.0558 10.386L59.879 10.2924C59.6653 10.696 59.5678 11.2399 59.5678 11.906H59.7678H59.9678C59.9678 11.2708 60.0622 10.8013 60.2325 10.4796L60.0558 10.386ZM59.7678 11.906H59.5678V12.194H59.7678H59.9678V11.906H59.7678ZM59.7678 12.194H59.5678C59.5678 12.8506 59.6657 13.3929 59.8779 13.8055L60.0558 13.714L60.2336 13.6225C60.0618 13.2885 59.9678 12.8174 59.9678 12.194H59.7678ZM60.0558 13.714L59.88 13.8094C60.0994 14.2136 60.3946 14.5131 60.7686 14.694L60.8558 14.514L60.9429 14.334C60.6555 14.1949 60.4175 13.9611 60.2315 13.6186L60.0558 13.714ZM60.8558 14.514L60.7686 14.694C61.1277 14.8678 61.515 14.954 61.9278 14.954V14.754V14.554C61.5725 14.554 61.2451 14.4802 60.9429 14.334L60.8558 14.514ZM67.5265 15.97H67.3265V16.17H67.5265V15.97ZM67.5265 8.322V8.122H67.3265V8.322H67.5265ZM68.8385 8.322H69.0385V8.122H68.8385V8.322ZM68.8385 9.346H68.6385V10.0858L69.0113 9.44677L68.8385 9.346ZM69.6385 8.45L69.525 8.28536V8.28536L69.6385 8.45ZM72.0865 8.61L71.9497 8.75593L71.952 8.75799L72.0865 8.61ZM72.6145 11.074V11.274H72.8145V11.074H72.6145ZM71.3025 11.074H71.1025V11.274H71.3025V11.074ZM71.0625 9.506L70.9211 9.64742L70.9261 9.65247L70.9315 9.65714L71.0625 9.506ZM69.7825 9.49L69.8978 9.6534L69.8996 9.65214L69.7825 9.49ZM69.3025 9.954L69.461 10.0759L69.4614 10.0755L69.3025 9.954ZM68.9025 10.77L68.7062 10.7307L68.705 10.7384L68.9025 10.77ZM68.8385 15.97V16.17H69.0385V15.97H68.8385ZM67.5265 15.97H67.7265V8.322H67.5265H67.3265V15.97H67.5265ZM67.5265 8.322V8.522H68.8385V8.322V8.122H67.5265V8.322ZM68.8385 8.322H68.6385V9.346H68.8385H69.0385V8.322H68.8385ZM68.8385 9.346L69.0113 9.44677C69.2231 9.08356 69.4709 8.80852 69.752 8.61464L69.6385 8.45L69.525 8.28536C69.1874 8.51815 68.9019 8.84045 68.6657 9.24523L68.8385 9.346ZM69.6385 8.45L69.752 8.61464C70.0198 8.42998 70.3718 8.33 70.8225 8.33V8.13V7.93C70.3132 7.93 69.8759 8.04335 69.525 8.28536L69.6385 8.45ZM70.8225 8.13V8.33C71.277 8.33 71.6483 8.47329 71.9497 8.75591L72.0865 8.61L72.2233 8.46409C71.8421 8.10671 71.3707 7.93 70.8225 7.93V8.13ZM72.0865 8.61L71.952 8.75799C72.257 9.03527 72.4145 9.40544 72.4145 9.89H72.6145H72.8145C72.8145 9.30789 72.62 8.82473 72.221 8.46201L72.0865 8.61ZM72.6145 9.89H72.4145V11.074H72.6145H72.8145V9.89H72.6145ZM72.6145 11.074V10.874H71.3025V11.074V11.274H72.6145V11.074ZM71.3025 11.074H71.5025V10.146H71.3025H71.1025V11.074H71.3025ZM71.3025 10.146H71.5025C71.5025 9.82193 71.4115 9.54385 71.1935 9.35486L71.0625 9.506L70.9315 9.65714C71.0335 9.74549 71.1025 9.89407 71.1025 10.146H71.3025ZM71.0625 9.506L71.2039 9.36458C71.011 9.17166 70.7596 9.082 70.4705 9.082V9.282V9.482C70.6721 9.482 70.8153 9.54168 70.9211 9.64742L71.0625 9.506ZM70.4705 9.282V9.082C70.1673 9.082 69.8957 9.16153 69.6654 9.32786L69.7825 9.49L69.8996 9.65214C70.0533 9.54114 70.2404 9.482 70.4705 9.482V9.282ZM69.7825 9.49L69.6672 9.32661C69.4688 9.46662 69.2943 9.63555 69.1436 9.83251L69.3025 9.954L69.4614 10.0755C69.5881 9.90979 69.7335 9.76938 69.8978 9.65339L69.7825 9.49ZM69.3025 9.954L69.144 9.83206C68.9171 10.127 68.7672 10.4267 68.7064 10.7308L68.9025 10.77L69.0986 10.8092C69.1445 10.58 69.2612 10.3357 69.461 10.0759L69.3025 9.954ZM68.9025 10.77L68.705 10.7384C68.6601 11.0193 68.6385 11.3668 68.6385 11.778H68.8385H69.0385C69.0385 11.3786 69.0596 11.054 69.1 10.8016L68.9025 10.77ZM68.8385 11.778H68.6385V15.97H68.8385H69.0385V11.778H68.8385ZM68.8385 15.97V15.77H67.5265V15.97V16.17H68.8385V15.97ZM74.5854 15.554L74.4527 15.7037L74.4547 15.7054L74.5854 15.554ZM74.4734 12.322L74.6167 12.4615L74.6185 12.4597L74.4734 12.322ZM76.2334 11.538L76.2065 11.3398L76.2062 11.3399L76.2334 11.538ZM78.1214 11.282L78.1483 11.4802L78.1484 11.4802L78.1214 11.282ZM78.2814 9.666L78.1678 9.83066L78.1704 9.83241L78.2814 9.666ZM75.2734 10.69L75.2195 10.8826L75.4129 10.9368L75.4662 10.743L75.2734 10.69ZM74.0734 10.354L73.8775 10.3135L73.8397 10.4963L74.0195 10.5466L74.0734 10.354ZM75.0494 8.786L75.1759 8.94093L75.1762 8.94065L75.0494 8.786ZM79.3054 8.834L79.4405 8.68657V8.68657L79.3054 8.834ZM80.0734 15.97V16.17H80.2734V15.97H80.0734ZM78.8094 15.97H78.6094V16.17H78.8094V15.97ZM78.8094 14.466H79.0094L78.6181 14.4075L78.8094 14.466ZM77.9454 15.714L78.062 15.8765L78.0647 15.8745L77.9454 15.714ZM77.7214 14.626L77.8298 14.7941L77.8311 14.7932L77.7214 14.626ZM78.5054 13.762L78.6832 13.8536L78.6843 13.8514L78.5054 13.762ZM78.7774 12.146H78.9774V11.7299L78.6524 11.9898L78.7774 12.146ZM78.3934 12.354L78.4523 12.5453L78.4606 12.5423L78.3934 12.354ZM77.8654 12.45L77.8455 12.251L77.8433 12.2512L77.8654 12.45ZM76.4254 12.61L76.4033 12.4112L76.4022 12.4114L76.4254 12.61ZM75.5454 14.658L75.4146 14.8094L75.4187 14.8128L75.5454 14.658ZM76.4094 16.162V15.962C75.7005 15.962 75.142 15.7705 74.7161 15.4026L74.5854 15.554L74.4547 15.7054C74.9674 16.1482 75.625 16.362 76.4094 16.362V16.162ZM74.5854 15.554L74.718 15.4043C74.297 15.0312 74.0814 14.5286 74.0814 13.874H73.8814H73.6814C73.6814 14.6274 73.935 15.2448 74.4527 15.7037L74.5854 15.554ZM73.8814 13.874H74.0814C74.0814 13.2904 74.2626 12.8252 74.6167 12.4615L74.4734 12.322L74.3301 12.1825C73.8948 12.6295 73.6814 13.1989 73.6814 13.874H73.8814ZM74.4734 12.322L74.6185 12.4597C74.972 12.087 75.5104 11.8389 76.2605 11.7362L76.2334 11.538L76.2062 11.3399C75.3991 11.4504 74.7641 11.725 74.3283 12.1843L74.4734 12.322ZM76.2334 11.538L76.2603 11.7362L78.1483 11.4802L78.1214 11.282L78.0945 11.0838L76.2065 11.3398L76.2334 11.538ZM78.1214 11.282L78.1484 11.4802C78.4061 11.445 78.6303 11.3581 78.7722 11.1846L78.6174 11.058L78.4626 10.9314C78.4125 10.9926 78.306 11.055 78.0944 11.0838L78.1214 11.282ZM78.6174 11.058L78.7722 11.1846C78.9045 11.0229 78.9614 10.8196 78.9614 10.594H78.7614H78.5614C78.5614 10.7524 78.5223 10.8584 78.4626 10.9314L78.6174 11.058ZM78.7614 10.594H78.9614C78.9614 10.1261 78.7714 9.75234 78.3923 9.49959L78.2814 9.666L78.1704 9.83241C78.4313 10.0063 78.5614 10.2512 78.5614 10.594H78.7614ZM78.2814 9.666L78.3949 9.50136C78.0447 9.25984 77.6131 9.146 77.1134 9.146V9.346V9.546C77.5523 9.546 77.8994 9.6455 78.1678 9.83064L78.2814 9.666ZM77.1134 9.346V9.146C76.6095 9.146 76.1713 9.27254 75.8111 9.53672L75.9294 9.698L76.0476 9.85928C76.3274 9.65413 76.6786 9.546 77.1134 9.546V9.346ZM75.9294 9.698L75.8111 9.53672C75.4506 9.80111 75.2084 10.1721 75.0805 10.637L75.2734 10.69L75.4662 10.743C75.5731 10.3545 75.7682 10.0642 76.0476 9.85928L75.9294 9.698ZM75.2734 10.69L75.3273 10.4974L74.1273 10.1614L74.0734 10.354L74.0195 10.5466L75.2195 10.8826L75.2734 10.69ZM74.0734 10.354L74.2692 10.3945C74.3873 9.82401 74.6862 9.34068 75.1759 8.94093L75.0494 8.786L74.9229 8.63107C74.3673 9.08465 74.0155 9.64666 73.8775 10.3135L74.0734 10.354ZM75.0494 8.786L75.1762 8.94065C75.6663 8.53873 76.3063 8.33 77.1134 8.33V8.13V7.93C76.2351 7.93 75.4991 8.15861 74.9226 8.63135L75.0494 8.786ZM77.1134 8.13V8.33C78.0312 8.33 78.7068 8.55664 79.1702 8.98143L79.3054 8.834L79.4405 8.68657C78.8799 8.17269 78.0942 7.93 77.1134 7.93V8.13ZM79.3054 8.834L79.1702 8.98143C79.6297 9.40263 79.8734 10.0248 79.8734 10.882H80.0734H80.2734C80.2734 9.94717 80.005 9.20404 79.4405 8.68657L79.3054 8.834ZM80.0734 10.882H79.8734V15.97H80.0734H80.2734V10.882H80.0734ZM80.0734 15.97V15.77H78.8094V15.97V16.17H80.0734V15.97ZM78.8094 15.97H79.0094V14.466H78.8094H78.6094V15.97H78.8094ZM78.8094 14.466L78.6181 14.4075C78.4699 14.8917 78.2059 15.2711 77.826 15.5535L77.9454 15.714L78.0647 15.8745C78.5169 15.5383 78.8289 15.0856 79.0006 14.5245L78.8094 14.466ZM77.9454 15.714L77.8287 15.5515C77.4527 15.8215 76.9836 15.962 76.4094 15.962V16.162V16.362C77.0512 16.362 77.606 16.2038 78.062 15.8765L77.9454 15.714ZM76.4894 14.946V15.146C77.009 15.146 77.4597 15.0329 77.8298 14.7941L77.7214 14.626L77.613 14.4579C77.3217 14.6458 76.9511 14.746 76.4894 14.746V14.946ZM77.7214 14.626L77.8311 14.7932C78.2003 14.5509 78.4855 14.2372 78.6832 13.8536L78.5054 13.762L78.3276 13.6704C78.1625 13.9908 77.9251 14.2531 77.6116 14.4588L77.7214 14.626ZM78.5054 13.762L78.6843 13.8514C78.8798 13.4603 78.9774 13.0402 78.9774 12.594H78.7774H78.5774C78.5774 12.9798 78.4936 13.3384 78.3265 13.6726L78.5054 13.762ZM78.7774 12.594H78.9774V12.146H78.7774H78.5774V12.594H78.7774ZM78.7774 12.146L78.6524 11.9898C78.5656 12.0593 78.4579 12.1186 78.3261 12.1657L78.3934 12.354L78.4606 12.5423C78.6276 12.4827 78.7758 12.4034 78.9023 12.3022L78.7774 12.146ZM78.3934 12.354L78.3346 12.1628C78.213 12.2002 78.0512 12.2304 77.8455 12.251L77.8654 12.45L77.8853 12.649C78.1062 12.6269 78.2964 12.5931 78.4522 12.5452L78.3934 12.354ZM77.8654 12.45L77.8433 12.2512L76.4033 12.4112L76.4254 12.61L76.4475 12.8088L77.8875 12.6488L77.8654 12.45ZM76.4254 12.61L76.4022 12.4114C75.9647 12.4625 75.6073 12.6021 75.359 12.8535C75.1078 13.108 74.9934 13.4517 74.9934 13.858H75.1934H75.3934C75.3934 13.5283 75.4843 13.296 75.6437 13.1345C75.8062 12.9699 76.0647 12.8535 76.4486 12.8086L76.4254 12.61ZM75.1934 13.858H74.9934C74.9934 14.2424 75.1328 14.5659 75.4147 14.8094L75.5454 14.658L75.6761 14.5066C75.4886 14.3447 75.3934 14.1349 75.3934 13.858H75.1934ZM75.5454 14.658L75.4187 14.8128C75.6987 15.0419 76.0626 15.146 76.4894 15.146V14.946V14.746C76.1268 14.746 75.8614 14.6581 75.672 14.5032L75.5454 14.658ZM82.089 15.97H81.889V16.17H82.089V15.97ZM82.089 8.322V8.122H81.889V8.322H82.089ZM83.401 8.322H83.601V8.122H83.401V8.322ZM83.401 9.378H83.201L83.5808 9.46559L83.401 9.378ZM84.233 8.45L84.3328 8.62337L84.3367 8.62104L84.233 8.45ZM86.665 8.498L86.5458 8.65866L86.5493 8.6611L86.665 8.498ZM87.353 9.442L87.1628 9.5037L87.3134 9.96833L87.5319 9.53144L87.353 9.442ZM88.265 8.45L88.1679 8.27517V8.27517L88.265 8.45ZM91.305 8.802L91.1567 8.93619L91.1583 8.93795L91.305 8.802ZM91.913 15.97V16.17H92.113V15.97H91.913ZM90.601 15.97H90.401V16.17H90.601V15.97ZM90.249 9.698L90.1075 9.83946L90.1109 9.84267L90.249 9.698ZM88.121 9.906L87.9712 9.77333L87.9674 9.77796L88.121 9.906ZM87.801 10.418L87.6221 10.3285L87.6203 10.3324L87.801 10.418ZM87.657 15.97V16.17H87.857V15.97H87.657ZM86.345 15.97H86.145V16.17H86.345V15.97ZM85.993 9.698L85.8515 9.83946L85.8549 9.84267L85.993 9.698ZM83.865 9.906L83.7152 9.77333L83.7114 9.77796L83.865 9.906ZM83.545 10.418L83.3661 10.3285L83.3643 10.3324L83.545 10.418ZM83.401 15.97V16.17H83.601V15.97H83.401ZM82.089 15.97H82.289V8.322H82.089H81.889V15.97H82.089ZM82.089 8.322V8.522H83.401V8.322V8.122H82.089V8.322ZM83.401 8.322H83.201V9.378H83.401H83.601V8.322H83.401ZM83.401 9.378L83.5808 9.46559C83.7685 9.08036 84.0201 8.80336 84.3328 8.62333L84.233 8.45L84.1332 8.27668C83.7419 8.50197 83.4389 8.84365 83.2212 9.29041L83.401 9.378ZM84.233 8.45L84.3367 8.62104C84.6562 8.42737 85.0095 8.33 85.401 8.33V8.13V7.93C84.9392 7.93 84.5138 8.04597 84.1293 8.27896L84.233 8.45ZM85.401 8.13V8.33C85.8807 8.33 86.2573 8.44453 86.5458 8.65862L86.665 8.498L86.7842 8.33738C86.4114 8.0608 85.9453 7.93 85.401 7.93V8.13ZM86.665 8.498L86.5493 8.6611C86.844 8.87025 87.0477 9.14895 87.1628 9.5037L87.353 9.442L87.5432 9.3803C87.4023 8.94572 87.1474 8.59509 86.7808 8.3349L86.665 8.498ZM87.353 9.442L87.5319 9.53144C87.7405 9.11427 88.0182 8.81593 88.3621 8.62483L88.265 8.45L88.1679 8.27517C87.7439 8.51073 87.4135 8.87373 87.1741 9.35256L87.353 9.442ZM88.265 8.45L88.3621 8.62483C88.7158 8.42834 89.0983 8.33 89.513 8.33V8.13V7.93C89.0317 7.93 88.5822 8.04499 88.1679 8.27517L88.265 8.45ZM89.513 8.13V8.33C90.2641 8.33 90.8 8.54198 91.1567 8.93618L91.305 8.802L91.4533 8.66782C90.9993 8.16602 90.3405 7.93 89.513 7.93V8.13ZM91.305 8.802L91.1583 8.93795C91.5182 9.32629 91.713 9.89988 91.713 10.69H91.913H92.113C92.113 9.83746 91.9024 9.15238 91.4517 8.66605L91.305 8.802ZM91.913 10.69H91.713V15.97H91.913H92.113V10.69H91.913ZM91.913 15.97V15.77H90.601V15.97V16.17H91.913V15.97ZM90.601 15.97H90.801V10.738H90.601H90.401V15.97H90.601ZM90.601 10.738H90.801C90.801 10.2387 90.6762 9.82925 90.3871 9.55333L90.249 9.698L90.1109 9.84267C90.2912 10.0148 90.401 10.2987 90.401 10.738H90.601ZM90.249 9.698L90.3904 9.55658C90.1113 9.27742 89.7419 9.146 89.305 9.146V9.346V9.546C89.6574 9.546 89.9174 9.64925 90.1076 9.83942L90.249 9.698ZM89.305 9.346V9.146C88.7837 9.146 88.3362 9.36141 87.9713 9.77339L88.121 9.906L88.2707 10.0386C88.5672 9.70392 88.909 9.546 89.305 9.546V9.346ZM88.121 9.906L87.9674 9.77796C87.8476 9.92168 87.733 10.1068 87.6221 10.3286L87.801 10.418L87.9799 10.5074C88.0824 10.3025 88.1811 10.1463 88.2747 10.034L88.121 9.906ZM87.801 10.418L87.6203 10.3324C87.507 10.5714 87.457 10.8706 87.457 11.218H87.657H87.857C87.857 10.904 87.903 10.6699 87.9818 10.5036L87.801 10.418ZM87.657 11.218H87.457V15.97H87.657H87.857V11.218H87.657ZM87.657 15.97V15.77H86.345V15.97V16.17H87.657V15.97ZM86.345 15.97H86.545V10.738H86.345H86.145V15.97H86.345ZM86.345 10.738H86.545C86.545 10.2387 86.4202 9.82925 86.1311 9.55333L85.993 9.698L85.8549 9.84267C86.0352 10.0148 86.145 10.2987 86.145 10.738H86.345ZM85.993 9.698L86.1344 9.55658C85.8553 9.27742 85.4859 9.146 85.049 9.146V9.346V9.546C85.4014 9.546 85.6614 9.64925 85.8516 9.83942L85.993 9.698ZM85.049 9.346V9.146C84.5277 9.146 84.0802 9.36141 83.7153 9.77339L83.865 9.906L84.0147 10.0386C84.3112 9.70392 84.653 9.546 85.049 9.546V9.346ZM83.865 9.906L83.7114 9.77796C83.5916 9.92168 83.477 10.1068 83.3661 10.3286L83.545 10.418L83.7239 10.5074C83.8263 10.3025 83.9251 10.1463 84.0186 10.034L83.865 9.906ZM83.545 10.418L83.3643 10.3324C83.251 10.5714 83.201 10.8706 83.201 11.218H83.401H83.601C83.601 10.904 83.647 10.6699 83.7257 10.5036L83.545 10.418ZM83.401 11.218H83.201V15.97H83.401H83.601V11.218H83.401ZM83.401 15.97V15.77H82.089V15.97V16.17H83.401V15.97Z" fill="black" mask="url(#path-7-outside-1_1_19)"/>
<defs>
<radialGradient id="paint0_radial_1_19" cx="0" cy="0" r="1" gradientUnits="userSpaceOnUse" gradientTransform="translate(7.8525 15.0506) rotate(-55.3758) scale(16.6994)">
<stop stop-color="#B13589"/>
<stop offset="0.79309" stop-color="#C62F94"/>
<stop offset="1" stop-color="#8A3AC8"/>
</radialGradient>
<radialGradient id="paint1_radial_1_19" cx="0" cy="0" r="1" gradientUnits="userSpaceOnUse" gradientTransform="translate(7.19813 20.2856) rotate(-65.1363) scale(14.7851)">
<stop stop-color="#E0E8B7"/>
<stop offset="0.444662" stop-color="#FB8A2E"/>
<stop offset="0.71474" stop-color="#E2425C"/>
<stop offset="1" stop-color="#E2425C" stop-opacity="0"/>
</radialGradient>
<radialGradient id="paint2_radial_1_19" cx="0" cy="0" r="1" gradientUnits="userSpaceOnUse" gradientTransform="translate(0.327188 1.96312) rotate(-8.1301) scale(25.4492 5.44333)">
<stop offset="0.156701" stop-color="#406ADC"/>
<stop offset="0.467799" stop-color="#6A45BE"/>
<stop offset="1" stop-color="#6A45BE" stop-opacity="0"/>
</radialGradient>
</defs>
</svg>
