<svg xmlns:xlink="http://www.w3.org/1999/xlink" xmlns="http://www.w3.org/2000/svg" width="121" height="25" viewBox="0 0 121 25" fill="none">
<path d="M96.4536 17.788C96.1529 17.788 95.9071 18.0338 95.9071 18.3346C95.9071 18.6353 96.15 18.8811 96.4536 18.8811C96.7544 18.8811 97.0002 18.6353 97.0002 18.3346C96.9973 18.0309 96.7544 17.788 96.4536 17.788ZM96.4536 18.7915C96.1991 18.7915 95.9938 18.5862 95.9938 18.3317C95.9938 18.0772 96.1991 17.8719 96.4536 17.8719C96.7081 17.8719 96.9134 18.0772 96.9134 18.3317C96.9134 18.5862 96.7052 18.7915 96.4536 18.7915ZM96.63 18.2392C96.63 18.1408 96.5606 18.0801 96.4565 18.0801H96.283V18.5775H96.3669V18.3982H96.4594L96.5491 18.5775H96.6416L96.5433 18.378C96.5953 18.3548 96.63 18.3057 96.63 18.2392ZM96.4536 18.3201H96.3698V18.1553H96.4536C96.5115 18.1553 96.5462 18.1842 96.5462 18.2363C96.5433 18.2912 96.5086 18.3201 96.4536 18.3201ZM30.7559 12.2703V10.9516H28.7345V18.7973H30.7559V14.0922C30.7559 13.2391 31.3025 12.8227 32.1556 12.8227H33.2632V10.9516H32.3175C31.5743 10.9516 30.9323 11.3362 30.7559 12.2703ZM35.1545 7.84863C34.4633 7.84863 33.9312 8.3952 33.9312 9.08636C33.9312 9.76306 34.4604 10.3096 35.1545 10.3096C35.8485 10.3096 36.3777 9.76306 36.3777 9.08636C36.3777 8.39231 35.8456 7.84863 35.1545 7.84863ZM34.1452 18.7944H36.1637V10.9516H34.1452V18.7944ZM45.7735 14.873C45.7735 17.1113 43.9574 18.9274 41.719 18.9274C40.8139 18.9274 39.9955 18.6324 39.339 18.1322V21.0992H37.3205V10.9516H39.339V11.6168C39.9955 11.1165 40.8168 10.8215 41.719 10.8215C43.9574 10.8186 45.7735 12.6347 45.7735 14.873ZM43.7434 14.873C43.7434 13.6555 42.7572 12.6694 41.5397 12.6694C40.3223 12.6694 39.3361 13.6555 39.3361 14.873C39.3361 16.0905 40.3223 17.0766 41.5397 17.0766C42.7572 17.0766 43.7434 16.0905 43.7434 14.873ZM80.8346 14.1847L79.6576 13.8608C78.8826 13.6584 78.5818 13.4213 78.5818 13.0135C78.5818 12.6144 79.0069 12.3368 79.6113 12.3368C80.1897 12.3368 80.6408 12.7157 80.6408 13.1986V13.2449H82.5003V13.1986C82.5003 11.7758 81.3407 10.8186 79.6113 10.8186C77.8993 10.8186 76.6558 11.7729 76.6558 13.0916C76.6558 14.1153 77.3354 14.8875 78.5211 15.2085L79.6489 15.515C80.5049 15.7521 80.823 16.0153 80.823 16.4867C80.823 16.9841 80.3632 17.3166 79.6778 17.3166C78.9635 17.3166 78.4835 16.8655 78.4835 16.1946V16.1483H76.5112V16.1946C76.5112 17.8025 77.8068 18.9274 79.6634 18.9274C81.4506 18.9274 82.749 17.8285 82.749 16.3161C82.7461 15.5786 82.4136 14.607 80.8346 14.1847ZM52.928 10.9516H54.9465V18.7973H52.928V18.1322C52.2715 18.6324 51.4502 18.9274 50.5479 18.9274C48.3096 18.9274 46.4935 17.1113 46.4935 14.873C46.4935 12.6347 48.3096 10.8186 50.5479 10.8186C51.4531 10.8186 52.2715 11.1136 52.928 11.6139V10.9516ZM52.928 14.873C52.928 13.6555 51.9418 12.6694 50.7244 12.6694C49.5069 12.6694 48.5207 13.6555 48.5207 14.873C48.5207 16.0905 49.5069 17.0766 50.7244 17.0766C51.9418 17.0766 52.928 16.0905 52.928 14.873ZM62.2282 8.15806H64.2468V18.7973H62.2282V18.1322C61.5718 18.6324 60.7505 18.9274 59.8482 18.9274C57.6099 18.9274 55.7938 17.1113 55.7938 14.873C55.7938 12.6347 57.6099 10.8186 59.8482 10.8186C60.7534 10.8186 61.5718 11.1136 62.2282 11.6139V8.15806ZM62.2282 14.873C62.2282 13.6555 61.2421 12.6694 60.0246 12.6694C58.8072 12.6694 57.821 13.6555 57.821 14.873C57.821 16.0905 58.8072 17.0766 60.0246 17.0766C61.2421 17.0766 62.2282 16.0905 62.2282 14.873ZM73.6136 18.7944H75.6321V10.9516H73.6136V18.7944ZM74.6199 7.84863C73.9288 7.84863 73.3967 8.3952 73.3967 9.08636C73.3967 9.76306 73.9259 10.3096 74.6199 10.3096C75.314 10.3096 75.8432 9.76306 75.8432 9.08636C75.8432 8.39231 75.314 7.84863 74.6199 7.84863ZM91.4651 14.873C91.4651 17.1113 89.649 18.9274 87.4107 18.9274C85.1724 18.9274 83.3563 17.1113 83.3563 14.873C83.3563 12.6347 85.1724 10.8186 87.4107 10.8186C89.649 10.8186 91.4651 12.6347 91.4651 14.873ZM89.6143 14.873C89.6143 13.6555 88.6282 12.6694 87.4107 12.6694C86.1932 12.6694 85.2071 13.6555 85.2071 14.873C85.2071 16.0905 86.1932 17.0766 87.4107 17.0766C88.6253 17.0766 89.6143 16.0905 89.6143 14.873ZM29.7235 8.15806H21.9849V9.95681H24.8507V18.7944H26.8606V9.95681H29.7264L29.7235 8.15806ZM68.8564 16.6457L67.0606 10.9487H64.9408L67.6332 18.7944H70.0595L72.7662 10.9487H70.6465L68.8564 16.6457ZM94.4206 12.2703V10.9516H92.3992V18.7973H94.4206V14.0922C94.4206 13.2391 94.9672 12.8227 95.8203 12.8227H96.9279V10.9516H95.9822C95.2419 10.9516 94.5999 11.3362 94.4206 12.2703Z" fill="black"/>
<path d="M10.3153 24.6307C16.0123 24.6307 20.6307 20.0123 20.6307 14.3153C20.6307 8.61833 16.0123 4 10.3153 4C4.61833 4 0 8.61833 0 14.3153C0 20.0123 4.61833 24.6307 10.3153 24.6307Z" fill="#34E0A1"/>
<path d="M16.6914 12.3048L17.9349 10.9514H15.1732C13.7908 10.0086 12.1222 9.4563 10.3177 9.4563C8.51605 9.4563 6.85032 10.0086 5.4709 10.9514H2.70337L3.94688 12.3048C3.18342 13.0017 2.70626 14.0052 2.70626 15.1186C2.70626 17.221 4.40958 18.9243 6.51197 18.9243C7.50967 18.9243 8.42061 18.5397 9.09731 17.9093L10.3177 19.2366L11.5381 17.9093C12.2177 18.5397 13.1257 18.9214 14.1234 18.9214C16.2258 18.9214 17.932 17.2181 17.932 15.1157C17.932 14.0023 17.4548 12.9988 16.6914 12.3048ZM6.51487 17.6924C5.09206 17.6924 3.94109 16.5385 3.94109 15.1186C3.94109 13.6987 5.09495 12.5448 6.51487 12.5448C7.93478 12.5448 9.08864 13.6987 9.08864 15.1186C9.08864 16.5385 7.93767 17.6924 6.51487 17.6924ZM10.3206 15.0405C10.3206 13.3459 9.08864 11.8913 7.46051 11.2695C8.33964 10.9022 9.30553 10.6969 10.3177 10.6969C11.3298 10.6969 12.2957 10.9022 13.1778 11.2695C11.5525 11.8942 10.3206 13.3459 10.3206 15.0405ZM14.1263 17.6924C12.7035 17.6924 11.5525 16.5385 11.5525 15.1186C11.5525 13.6987 12.7064 12.5448 14.1263 12.5448C15.5462 12.5448 16.7001 13.6987 16.7001 15.1186C16.7001 16.5385 15.5491 17.6924 14.1263 17.6924ZM14.1263 13.7652C13.3802 13.7652 12.7758 14.3696 12.7758 15.1157C12.7758 15.8618 13.3802 16.4662 14.1263 16.4662C14.8724 16.4662 15.4768 15.8618 15.4768 15.1157C15.4739 14.3696 14.8724 13.7652 14.1263 13.7652ZM7.86248 15.1157C7.86248 15.8618 7.25808 16.4662 6.51197 16.4662C5.76587 16.4662 5.16147 15.8618 5.16147 15.1157C5.16147 14.3696 5.76587 13.7652 6.51197 13.7652C7.26097 13.7652 7.86248 14.3696 7.86248 15.1157Z" fill="black"/>
</svg>