<svg xmlns:xlink="http://www.w3.org/1999/xlink" xmlns="http://www.w3.org/2000/svg" width="121" height="25" viewBox="0 0 121 25" fill="none">
<g clip-path="url(#clip0_823_10751)">
<path d="M22.0775 8.30859H30.5755V9.89059H27.2295V18.8086H25.3955V9.89059H22.0635L22.0775 8.30859ZM30.2115 11.2066H31.7795V12.6766H31.8075C31.8635 12.4666 31.9615 12.2706 32.1015 12.0746C32.2415 11.8786 32.4095 11.6966 32.6195 11.5426C32.8155 11.3746 33.0395 11.2486 33.2915 11.1506C33.5295 11.0526 33.7815 10.9966 34.0335 10.9966C34.2295 10.9966 34.3695 11.0106 34.4395 11.0106C34.5095 11.0246 34.5935 11.0386 34.6635 11.0386V12.6486C34.5515 12.6206 34.4255 12.6066 34.2995 12.5926C34.1735 12.5786 34.0615 12.5646 33.9355 12.5646C33.6555 12.5646 33.3895 12.6206 33.1375 12.7326C32.8855 12.8446 32.6755 13.0126 32.4795 13.2226C32.2975 13.4466 32.1435 13.7126 32.0315 14.0346C31.9195 14.3566 31.8635 14.7346 31.8635 15.1546V18.7666H30.1835L30.2115 11.2066ZM42.3635 18.8086H40.7115V17.7446H40.6835C40.4735 18.1366 40.1655 18.4306 39.7595 18.6686C39.3535 18.9066 38.9335 19.0186 38.5135 19.0186C37.5195 19.0186 36.7915 18.7806 36.3435 18.2766C35.8955 17.7866 35.6715 17.0306 35.6715 16.0366V11.2066H37.3515V15.8686C37.3515 16.5406 37.4775 17.0166 37.7435 17.2826C37.9955 17.5626 38.3595 17.7026 38.8215 17.7026C39.1715 17.7026 39.4655 17.6466 39.7035 17.5346C39.9415 17.4226 40.1375 17.2826 40.2775 17.1006C40.4315 16.9186 40.5295 16.6946 40.5995 16.4426C40.6695 16.1906 40.6975 15.9106 40.6975 15.6166V11.2066H42.3775V18.8086H42.3635ZM45.2195 16.3726C45.2755 16.8626 45.4575 17.1986 45.7795 17.4086C46.1015 17.6046 46.4935 17.7026 46.9415 17.7026C47.0955 17.7026 47.2775 17.6886 47.4735 17.6606C47.6695 17.6326 47.8655 17.5906 48.0335 17.5206C48.2155 17.4506 48.3555 17.3526 48.4675 17.2126C48.5795 17.0726 48.6355 16.9046 48.6215 16.6946C48.6075 16.4846 48.5375 16.3026 48.3835 16.1626C48.2295 16.0226 48.0475 15.9246 47.8235 15.8266C47.5995 15.7426 47.3335 15.6726 47.0395 15.6166C46.7455 15.5606 46.4515 15.4906 46.1435 15.4206C45.8355 15.3506 45.5275 15.2666 45.2335 15.1686C44.9395 15.0706 44.6875 14.9446 44.4495 14.7626C44.2255 14.5946 44.0295 14.3846 43.9035 14.1186C43.7635 13.8526 43.6935 13.5446 43.6935 13.1526C43.6935 12.7326 43.7915 12.3966 44.0015 12.1166C44.1975 11.8366 44.4635 11.6126 44.7715 11.4446C45.0795 11.2766 45.4295 11.1506 45.8075 11.0806C46.1855 11.0106 46.5495 10.9826 46.8855 10.9826C47.2775 10.9826 47.6555 11.0246 48.0055 11.1086C48.3555 11.1926 48.6915 11.3186 48.9715 11.5146C49.2655 11.6966 49.5035 11.9486 49.6855 12.2426C49.8815 12.5366 49.9935 12.9006 50.0495 13.3206H48.2995C48.2155 12.9146 48.0335 12.6486 47.7535 12.5086C47.4595 12.3686 47.1375 12.2986 46.7595 12.2986C46.6475 12.2986 46.4935 12.3126 46.3395 12.3266C46.1715 12.3546 46.0315 12.3826 45.8775 12.4386C45.7375 12.4946 45.6115 12.5786 45.5135 12.6766C45.4155 12.7746 45.3595 12.9146 45.3595 13.0826C45.3595 13.2926 45.4295 13.4466 45.5695 13.5726C45.7095 13.6986 45.8915 13.7966 46.1295 13.8946C46.3535 13.9786 46.6195 14.0486 46.9135 14.1046C47.2075 14.1606 47.5155 14.2306 47.8235 14.3006C48.1315 14.3706 48.4255 14.4546 48.7195 14.5526C49.0135 14.6506 49.2795 14.7766 49.5035 14.9586C49.7275 15.1266 49.9235 15.3366 50.0635 15.5886C50.2035 15.8406 50.2735 16.1626 50.2735 16.5266C50.2735 16.9746 50.1755 17.3526 49.9655 17.6746C49.7555 17.9826 49.4895 18.2486 49.1675 18.4446C48.8455 18.6406 48.4675 18.7806 48.0755 18.8786C47.6695 18.9626 47.2775 19.0186 46.8855 19.0186C46.4095 19.0186 45.9615 18.9626 45.5555 18.8506C45.1495 18.7386 44.7855 18.5706 44.4915 18.3606C44.1975 18.1366 43.9595 17.8706 43.7915 17.5346C43.6235 17.2126 43.5255 16.8206 43.5115 16.3586H45.2055V16.3726H45.2195ZM50.7495 11.2066H52.0235V8.91059H53.7035V11.1926H55.2155V12.4386H53.7035V16.4986C53.7035 16.6806 53.7175 16.8206 53.7315 16.9606C53.7455 17.0866 53.7875 17.1986 53.8295 17.2826C53.8855 17.3666 53.9695 17.4366 54.0675 17.4786C54.1795 17.5206 54.3195 17.5486 54.5155 17.5486C54.6275 17.5486 54.7535 17.5486 54.8655 17.5346C54.9775 17.5206 55.1035 17.5066 55.2155 17.4786V18.7806C55.0335 18.8086 54.8515 18.8226 54.6695 18.8366C54.4875 18.8646 54.3195 18.8646 54.1235 18.8646C53.6755 18.8646 53.3255 18.8226 53.0595 18.7386C52.7935 18.6546 52.5835 18.5286 52.4295 18.3746C52.2755 18.2066 52.1775 18.0106 52.1215 17.7726C52.0655 17.5346 52.0375 17.2406 52.0235 16.9326V12.4526H50.7495V11.1786V11.2066ZM56.3915 11.2066H57.9735V12.2426H58.0015C58.2395 11.7946 58.5615 11.4866 58.9815 11.2906C59.4015 11.0946 59.8495 10.9966 60.3535 10.9966C60.9555 10.9966 61.4735 11.0946 61.9215 11.3186C62.3695 11.5286 62.7335 11.8086 63.0275 12.1866C63.3215 12.5506 63.5455 12.9846 63.6855 13.4746C63.8255 13.9646 63.9095 14.4966 63.9095 15.0426C63.9095 15.5606 63.8395 16.0506 63.7135 16.5266C63.5735 17.0026 63.3775 17.4366 63.1115 17.8006C62.8455 18.1646 62.5095 18.4586 62.0895 18.6826C61.6695 18.9066 61.1935 19.0186 60.6335 19.0186C60.3955 19.0186 60.1435 18.9906 59.9055 18.9486C59.6675 18.9066 59.4295 18.8366 59.2055 18.7386C58.9815 18.6406 58.7715 18.5146 58.5895 18.3606C58.3935 18.2066 58.2395 18.0246 58.1135 17.8286H58.0855V21.6226H56.4055V11.2066H56.3915ZM62.2575 15.0146C62.2575 14.6786 62.2155 14.3426 62.1175 14.0206C62.0335 13.6986 61.8935 13.4186 61.7115 13.1666C61.5295 12.9146 61.3055 12.7186 61.0535 12.5646C60.7875 12.4106 60.4795 12.3406 60.1435 12.3406C59.4435 12.3406 58.9115 12.5786 58.5475 13.0686C58.1975 13.5586 58.0155 14.2166 58.0155 15.0286C58.0155 15.4206 58.0575 15.7706 58.1555 16.0926C58.2535 16.4146 58.3795 16.6946 58.5755 16.9326C58.7575 17.1706 58.9815 17.3526 59.2475 17.4926C59.5135 17.6326 59.8075 17.7026 60.1575 17.7026C60.5495 17.7026 60.8575 17.6186 61.1235 17.4646C61.3895 17.3106 61.5995 17.1006 61.7815 16.8626C61.9495 16.6106 62.0755 16.3306 62.1455 16.0086C62.2155 15.6726 62.2575 15.3506 62.2575 15.0146ZM65.2115 8.30859H66.8915V9.89059H65.2115V8.30859ZM65.2115 11.2066H66.8915V18.8086H65.2115V11.2066ZM68.3895 8.30859H70.0695V18.8086H68.3895V8.30859ZM75.1935 19.0186C74.5915 19.0186 74.0455 18.9206 73.5695 18.7106C73.0935 18.5006 72.7015 18.2346 72.3655 17.8846C72.0435 17.5346 71.7915 17.1006 71.6235 16.6106C71.4555 16.1206 71.3575 15.5746 71.3575 15.0006C71.3575 14.4266 71.4415 13.8946 71.6235 13.4046C71.7915 12.9146 72.0435 12.4946 72.3655 12.1306C72.6875 11.7806 73.0935 11.5006 73.5695 11.3046C74.0455 11.1086 74.5915 10.9966 75.1935 10.9966C75.7955 10.9966 76.3415 11.0946 76.8175 11.3046C77.2935 11.5006 77.6855 11.7806 78.0215 12.1306C78.3435 12.4806 78.5955 12.9146 78.7635 13.4046C78.9315 13.8946 79.0295 14.4266 79.0295 15.0006C79.0295 15.5886 78.9455 16.1206 78.7635 16.6106C78.5815 17.1006 78.3435 17.5206 78.0215 17.8846C77.6995 18.2346 77.2935 18.5146 76.8175 18.7106C76.3415 18.9066 75.8095 19.0186 75.1935 19.0186ZM75.1935 17.6886C75.5575 17.6886 75.8935 17.6046 76.1595 17.4506C76.4395 17.2966 76.6495 17.0866 76.8315 16.8346C77.0135 16.5826 77.1395 16.2886 77.2235 15.9806C77.3075 15.6586 77.3495 15.3366 77.3495 15.0006C77.3495 14.6786 77.3075 14.3566 77.2235 14.0346C77.1395 13.7126 77.0135 13.4326 76.8315 13.1806C76.6495 12.9286 76.4255 12.7326 76.1595 12.5786C75.8795 12.4246 75.5575 12.3406 75.1935 12.3406C74.8295 12.3406 74.4935 12.4246 74.2275 12.5786C73.9475 12.7326 73.7375 12.9426 73.5555 13.1806C73.3735 13.4326 73.2475 13.7126 73.1635 14.0346C73.0795 14.3566 73.0375 14.6786 73.0375 15.0006C73.0375 15.3366 73.0795 15.6586 73.1635 15.9806C73.2475 16.3026 73.3735 16.5826 73.5555 16.8346C73.7375 17.0866 73.9615 17.2966 74.2275 17.4506C74.5075 17.6186 74.8295 17.6886 75.1935 17.6886ZM79.5335 11.2066H80.8075V8.91059H82.4875V11.1926H83.9995V12.4386H82.4875V16.4986C82.4875 16.6806 82.5015 16.8206 82.5155 16.9606C82.5295 17.0866 82.5715 17.1986 82.6135 17.2826C82.6695 17.3666 82.7535 17.4366 82.8515 17.4786C82.9635 17.5206 83.1035 17.5486 83.2995 17.5486C83.4115 17.5486 83.5375 17.5486 83.6495 17.5346C83.7615 17.5206 83.8875 17.5066 83.9995 17.4786V18.7806C83.8175 18.8086 83.6355 18.8226 83.4535 18.8366C83.2715 18.8646 83.1035 18.8646 82.9075 18.8646C82.4595 18.8646 82.1095 18.8226 81.8435 18.7386C81.5775 18.6546 81.3675 18.5286 81.2135 18.3746C81.0595 18.2066 80.9615 18.0106 80.9055 17.7726C80.8495 17.5346 80.8215 17.2406 80.8075 16.9326V12.4526H79.5335V11.1786V11.2066V11.2066Z" fill="black"/>
<path d="M20.118 8.308H12.432L10.066 1L7.686 8.308L0 8.294L6.216 12.816L3.836 20.124L10.052 15.602L16.268 20.124L13.902 12.816L20.118 8.308Z" fill="#00B67A"/>
<path d="M14.4344 14.4682L13.9024 12.8162L10.0664 15.6022L14.4344 14.4682Z" fill="#005128"/>
</g>
<defs>
<clipPath id="clip0_823_10751">
<rect width="84" height="20.622" fill="white" transform="translate(0 1)"/>
</clipPath>
</defs>
</svg>